<?xml version="1.0" encoding="utf-8"?>
<!-- Generator: Adobe Illustrator 28.3.0, SVG Export Plug-In . SVG Version: 6.00 Build 0)  -->
<svg version="1.0" id="Layer_1" xmlns="http://www.w3.org/2000/svg" xmlns:xlink="http://www.w3.org/1999/xlink" x="0px" y="0px"
	 viewBox="0 0 391.8 277" style="enable-background:new 0 0 391.8 277;" xml:space="preserve">
<g>
	<path style="fill:#FFFFFF;" d="M324.9,30.6c3.4,7.7,6.8,15.4,10.2,23.1c0.3-0.1,0.5-0.2,0.8-0.3c-2.5-7.6-5-15.2-7.5-22.9
		c0.2-0.1,0.3-0.1,0.5-0.2c1.6,3.3,3.2,6.6,4.9,9.9c6.7,13.3,13.2,26.7,17.4,41.1c0.9,3.3,1,6.8,0.7,10.3
		c-2.4-5.6-4.8-11.2-7.2-16.7c-0.3,0.1-0.6,0.2-0.8,0.3c1.9,6.5,3.8,13.1,5.9,20.5c-6-1-10.9-1.9-15.9-2.7
		c-36.3-6.1-72.6-12.3-108.9-18.2c-32-5.1-64.2-7.1-96.5-5.2c-26.4,1.5-52.7,4.9-79,7.5c-7.1,0.7-14.2,1.5-21.1,3.1
		C18.7,82.4,9.2,85.4,0,88c0.6-0.5,1.6-1.4,2.7-2.3c1.2-1,2.4-2,3.6-3c16.6-13.6,33-27.5,49.9-40.7c9.4-7.6,19.6-14.5,29.9-20.9
		c10-6.1,21.3-9,33.1-9.2c29.6-0.7,59.2-1.3,88.8-1.8c4.9-0.1,9.8,0.7,14.6,0.9c1,0,2-0.5,3-0.8c0-0.3,0.1-0.6,0.1-1
		c9.5,5.2,19,10.4,28.5,15.6c0.1-0.2,0.2-0.3,0.3-0.5c-4.6-3.3-9.3-6.7-13.9-10c13.6,6.4,24.2,17.2,36.3,25.7
		c0.2-0.3,0.5-0.6,0.7-0.9C265.3,28.4,253,17.7,240.7,7c0.3-0.4,0.6-0.8,0.9-1.2c8.3,5.5,16.7,11.1,25,16.6c0.1-0.2,0.3-0.3,0.4-0.5
		c-1.9-1.6-3.8-3.1-5.7-4.7c0.2-0.2,0.3-0.4,0.5-0.6c9.6,7,19.1,14,28.7,21c0.2-0.3,0.5-0.5,0.7-0.8c-6.6-6.2-13.3-12.4-19.9-18.5
		c0.2-0.2,0.4-0.5,0.6-0.7c10.2,8.3,20.5,16.7,30.7,25c0.1-0.1,0.3-0.2,0.4-0.3c-8.6-9.7-17.3-19.3-25.9-29c0.2-0.2,0.5-0.5,0.7-0.7
		c13.4,8.1,24.8,18.6,35.2,30.3c0.2-0.2,0.4-0.4,0.7-0.6c-5.8-7.9-11.6-15.9-17.4-23.8c0.4-0.3,0.7-0.6,1.1-0.8
		c7.5,8.8,15,17.7,23,27c-4.6-9.8-9-19.1-13.4-28.3c0.3-0.2,0.7-0.3,1-0.5c7.3,11.7,14.7,23.4,22,35.1c0.2-0.1,0.3-0.1,0.5-0.2
		c-2-6.6-4.1-13.2-6.1-19.9C324.5,30.7,324.7,30.7,324.9,30.6z M220,14.1c4.7,1.6,9.4,3.2,14.1,4.8c0.1-0.4,0.2-0.7,0.4-1.1
		c-4.8-1.6-9.5-3.1-14.3-4.6c-0.4-0.1-0.9,0.5-1.4,0.8c-7.1-1.8-14.3-2.1-21.6-0.3c18.7,1.8,35.9,8.4,52.3,17.3
		c-0.3-0.8-0.8-1.1-1.4-1.5c-7.5-5.8-15.7-10.4-24.6-13.7C222.3,15.3,221.1,14.6,220,14.1z M166.8,19.1c4.8,0.3,9.2,0.3,13.6,0.8
		c7.4,0.7,14.9,1,22.1,2.6c20.7,4.8,38.7,15.3,55.4,28.2c5.4,4.1,11.7,7,17.5,10.4C254.2,36.2,186.7,10.5,166.8,19.1z M239.6,19.9
		c2.6,5.2,50.6,42.5,55.5,43.5C278.2,47,259.6,33.4,239.6,19.9z M211.2,37.8c-14.3-11-30.2-15.5-48.1-12.4
		C179.7,27.5,195.5,32.4,211.2,37.8z M265.4,62c-10.6-7.3-22.9-10.6-34.5-15.4C241.7,53.4,252.5,60,265.4,62z M162.5,35
		c0,0.2,0,0.4,0,0.6c16.1,5.9,32.2,11.7,48.3,17.6c0.1-0.4,0.3-0.8,0.4-1.2c-14.6-5.6-29.2-11.2-43.9-16.6
		C166,34.8,164.2,35.1,162.5,35z M319.7,72c-9.4-10.9-21.7-25.4-31.8-32.7C296.4,48.1,309.7,61.7,319.7,72z M232.7,44.9
		c-9.8-4.7-17.8-13.3-29.5-14.3C213.1,35.4,221.3,43.3,232.7,44.9z M66.8,43.2c0.2,0.2,0.5,0.4,0.7,0.6c6.9-3.8,13.7-7.5,20.6-11.3
		c-0.8-0.6-1.4-0.8-1.8-0.6c-5.8,2.6-11.7,5.2-17.4,8.1C67.9,40.4,67.5,42.1,66.8,43.2z M224.6,63.3c0.1-0.4,0.3-0.9,0.4-1.3
		c-12.7-2.8-25.4-5.5-38-8.3c-0.1,0.4-0.2,0.7-0.2,1.1C199.3,57.6,211.9,60.4,224.6,63.3z M119.7,24.5c10.5-2.3,21-4.7,31.5-7
		C140.2,17.9,129.6,19.8,119.7,24.5z M97.1,22.6c7.2-1.6,14.5-3.2,21.7-4.7c-0.1-0.3-0.1-0.6-0.2-0.9C110.9,16.3,104,19.5,97.1,22.6
		z M30.7,65.8c0.2,0.2,0.4,0.5,0.6,0.7c6.5-4.2,13.1-8.4,19.6-12.7c-0.3-0.4-0.6-0.9-0.8-1.3C43.2,56.4,37.1,61.4,30.7,65.8z
		 M206.4,42.8c-0.2,0.4-0.3,0.7-0.5,1.1c6.9,3,13.9,6,20.8,9c0.2-0.4,0.4-0.8,0.5-1.3C220.3,48.6,213.3,45.7,206.4,42.8z
		 M309.3,79.2c0.2-0.3,0.3-0.5,0.5-0.8c-5.6-3.7-11.2-7.4-16.8-11.2c-0.2,0.3-0.3,0.5-0.5,0.8C297,73.4,303.9,75.1,309.3,79.2z
		 M96.6,41.2c-0.1-0.3-0.2-0.5-0.3-0.8c-5.5,2.4-12.1,1.9-16.8,6.3c0.1,0.3,0.2,0.6,0.3,0.9C85.4,45.4,91,43.3,96.6,41.2z
		 M167.6,44.8c0.1,2.4,7,4,13.2,3.1C176.5,46.9,172.2,45.9,167.6,44.8z M152.1,32.7c0.1-0.5,0.1-1,0.2-1.4c-2.8-0.4-5.7-0.9-8.5-1.3
		c-0.1,0.3-0.1,0.7-0.2,1C146.4,31.6,149.2,32.1,152.1,32.7z M141.7,41.2c0-0.4,0-0.8,0.1-1.3c-2.4-0.1-4.8-0.2-7.3-0.3
		c0,0.3,0,0.7,0,1C136.9,40.8,139.3,41,141.7,41.2z"/>
	<path style="fill:#FFFFFF;" d="M128.1,140.7c5.4-2.8,10.6-6,16.2-8.3c44.8-18.2,88.9-15.9,132.2,5.2c0.6,0.3,1.2,0.6,1.7,1
		c0.1,0.1,0.2,0.3,0.6,1c-2.1-0.9-3.7-1.5-5.3-2.2c-28.7-11.8-58.4-16.3-89.2-12.1c-10.7,1.4-21.3,4.3-31.9,6.7
		c-0.8,0.2-2.1,1.8-2,2.6c1.1,11.8,6.3,21.2,16.6,27.4c0.4,0.3,0.9,0.4,2.4,1c-4.3-5.8-7.4-11.2-7.8-17.7c2.1,6.1,5.1,11.5,9.8,16.1
		c1.8,1.8,3.7,2.3,6.2,0.7c-7.2-10.1-8.5-21.1-5.5-33.1c0.3,5.1,0.5,9.9,0.8,14.8c0.3,0,0.6,0,1,0c0-3.6,0-7.3,0-10.9
		c1.8,10.6,4.8,20.4,14.4,26.8c-0.7-6.2-1.4-12.2-2-18.1c0.3-0.1,0.6-0.1,1-0.2c-0.1,6.5,3.1,11.5,6.8,16.3c2.5,3.2,5.6,3.9,9.6,2.9
		c-3.8-8.4-4.2-16.8-0.5-25.2c-0.2,1.6-0.5,3.2-0.7,4.8s-0.3,3.3,0.2,5c0.4-2,0.8-3.9,1.3-6.3c2.8,8.2,4,16.6,10.5,22.8
		c-2-9.4,1.2-17,7.6-24.3c-0.2,3.1-0.7,5.5-0.6,8c0.2,5.1,0.6,10.2,0.9,15.3c0.1,1.7,0.6,3.1,2.7,3c2.2,0,4.8,2,6.4-1.4
		c2.3-4.9,4.7-9.8,7-14.4c2.3,5.8,1,12-0.9,18c4.5,0.6,10.1-5.6,15.5-16.7c-0.2,4.8-1.5,7-10.6,17.8c5.7-0.1,11.8-11.1,12.7-22.5
		c1.9,9-0.7,17-5.7,24.6c5.1,1.2,10.8-6.7,15.4-20.9c0.3,0.1,0.6,0.2,0.9,0.2c-1,4-1.6,8.2-3.2,11.9c-1.7,3.8-4.4,7.1-7,11
		c8.3,1.5,13.7-4.3,20.4-7c-4.1,3-8.3,6-12.4,9c6,3.5,12,4.4,18.2-0.2c4.7-3.5,9.7-6.5,12.2-12.2c-1.6,7.7-5.5,13.9-11.4,18.9
		c8.2,6.1,16.1,3.5,24-0.4c0.1,0.3,0.2,0.6,0.3,0.9c-3.3,1.8-6.6,3.5-10.7,5.7c7.6,2.1,14.1,0.4,20.8-1.1c-1.7,0.9-3.3,1.8-5,2.5
		c-1.7,0.8-3.4,1.4-6,2.4c4.5,1.7,8.1,3.2,11.8,4.5c12.8,4.2,25.6,8.3,38.3,12.6c1.7,0.6,3.2,2,4.8,3c-1.6,1-3.1,2.4-4.9,3
		c-13.6,4.9-27.7,7-42,8.7c-9.8,1.2-19.5,3.2-29.6,4.9c3.6,4.4,6.8,8.3,9.9,12.1c-0.2,0.2-0.4,0.4-0.6,0.6
		c-7.1-4.1-13.1-11.4-22.9-9.1c4.7,8.3,9.1,16.3,13.5,24.1c-6.8-6.1-13.3-12.4-20.3-18.1c-4.4-3.6-5.8-3.3-11.7-0.4
		c3.8,5.5,5.4,11.6,5,18.8c-2.8-5.6-5.4-10.6-8-15.7c-0.3,0.1-0.6,0.2-0.9,0.3c3.5,6.9,5.4,13.9,3.5,22c-0.2-0.5-0.4-0.7-0.4-0.9
		c-0.6-9-5.9-15-12.5-20.4c-2.5-2.1-4.8-0.4-7-0.2c1.1,3.4,2.1,6.6,3,9.7c-0.3,0.1-0.5,0.3-0.8,0.4c-1.3-1.9-2.7-3.8-3.8-5.8
		c-1.7-3.3-4.1-4.4-7.6-3.2c-0.8,0.3-1.7,0.3-3.1,0.6c3.2,11,1,21.2-3.4,30.8c-1.9-8.9-4-18.1-5.8-27.4c-0.5-2.5-1.5-3.5-4-3
		c-0.9,0.2-1.8,0.2-2.7,0.1c-2.2-0.3-2.7,0.8-3.1,2.8c-0.8,5.3-2,10.6-3.5,15.9c-2.8-5.9-3.4-11.9-2.2-18.3
		c-4.3,6.2-5.7,13.3-7.5,20.3c-0.9-7.4,1.5-13.9,5.3-20.6c-4.6-0.5-8.6-1.6-12.3,2.1c-5.2,5.3-10.9,10-15.8,14.4
		c0.3-5.8,2-12.6,8-18.2c-7,0.4-14.6,8.4-23.5,23.9c1.6-9.4,6.6-16.6,14.1-22.4c-6,2.7-10.9,6.7-14.7,12.2c-1.1-3.9,0-6.4,6-14.2
		c-8.6,4-15,9.9-20.7,16.9c2.8-9.4,8.9-16.1,16.9-21.4c-5.2,0.7-9.1,4-13.1,6.9c-0.2-0.2-0.4-0.4-0.5-0.6c2.5-2.8,5-5.7,7.3-8.4
		c-4.2-3.2-6.2-3.3-11.3-0.2c-9.2,5.6-18.3,11.4-25.8,19.4c4.6-10.7,11.2-19.7,22-25.1c-0.1-0.3-0.1-0.7-0.2-1c-1.1,0-2.3-0.3-3.4,0
		c-5.5,1.8-10.9,3.7-16.6,5.2c3.5-2.3,7-4.6,10.4-6.9c-0.1-0.2-0.1-0.3-0.2-0.5c-6.5,2.3-13.1,4.5-19.6,7s-12.9,5.4-19.9,7.6
		c5-4.2,9.7-8.9,15.2-12.4s11.7-5.7,17.6-8.6c-1.3-1.7-3.1-1.8-5.5-0.9c-28.9,10.6-55.3,5.2-79.4-13c-3-2.2-5.3-5.3-7.5-8.4
		c5.1,4,10.2,8,15.3,12c0.2-0.2,0.4-0.5,0.6-0.7c-3-4.3-6.1-8.6-9.1-12.9c0.2-0.2,0.5-0.5,0.7-0.7c14,14,31.4,18.4,50.5,18.1
		c-12.7-3.7-26.5-4.9-36.3-15.4c2.2,1.3,4.5,2.6,6.7,3.9c-7.8-7.7-14.7-15.9-17.6-26.9c6.6,9.6,14.9,16.8,26.1,20.6
		c-5.3-3.8-10.6-7.6-15.8-11.3c0.1-0.1,0.2-0.2,0.3-0.3c5.3,2.8,10.6,5.7,16,8.3c2.6,1.2,5.5,1.8,8.2,2.7c0.4,0.1,0.8,0,0.8,0
		c-16.4-16.2-33-32.6-49.6-49c0.3-0.3,0.5-0.7,0.8-1c23.6,14.7,47.5,28.6,75.4,34.3c-11.6-9.8-16.9-22.1-15.6-37.2
		c0.1,0.6,0.1,1.1,0.2,1.7c-0.6,8.4,2.9,15.4,7.5,22c-2.5-7.3-5-14.7-7.5-22c1.9,2.6,3,5.7,4.7,8.3c3.4,5.3,7.7,10.2,12.2,14.8
		c2.8,2.8,6.6,4.7,10.3,6.7C97,160.8,93,149,92.3,136.5c1.9,5.4,4,11.1,6.1,16.9c0.4-0.1,0.8-0.3,1.2-0.4c-0.9-2-1.7-3.9-2.6-5.9
		c5.6,8.5,12.8,14.9,23.1,19.3c-5.7-8.2-9.8-16.1-10.9-25.3c3.9,12.1,10.5,22.1,21.8,28.7c-6.7-11.4-6.6-23.8-5.3-36.4
		c0.1,1.1,0.1,2.3,0.4,3.4c0.4,1.3,1.1,2.5,1.7,3.7c0.1,1.3-0.2,2.8,0.4,3.9c5,9.9,13.1,16.3,23.2,20.6c0.7,0.3,1.5,0.4,2.3,0.7
		c-2.2-3.6-4.2-7-6.2-10.3c6.6,8.4,8.8,10.5,12.4,11c-10.8-8.8-11.8-20.7-11.1-33.4c-1.4,0.4-2.1,0.5-2.8,0.8
		C140.3,136.1,134.2,138.4,128.1,140.7z M198.8,183.3c-7.5,0.2-14.8,0.6-22.1,0.5c-4.2-0.1-5.6,0.7-4.5,4.8
		c4.6,17.7,14.9,30.8,32,38c2.3,1,5,1.3,7.5,2c-10.7,0.3-21-1.1-29.7-8c-10.7-8.5-14.7-20.2-14.3-34c-3.1,1.5-5.9,3.2-8.5,5.1
		c-2.5,1.8-4.5,4.4-7.2,5.8c-8.7,4.5-17.5,8.9-27.2,10.8c-1.5,0.3-3,0.9-4.6,1.3c2.9,2.4,5.2,4.3,7.7,6.2c0.5,0.4,1.2,0.6,1.8,0.7
		c5,0.5,9.6,1.8,13.1,5.7c0.3,0.3,0.8,0.6,1.1,0.6c5.1-0.3,8.9,2.8,13.3,4.3c10.3,3.4,20.8,6.3,32,5.8c6.7-0.3,13.5,0.4,20.2,0.7
		c0.7,0,1.3,0,2-0.1c9.2-1.7,18.4-3.4,27.6-5c2.3-0.4,4.8-0.7,7-0.2c5,1.2,8.9-0.5,12.6-3.6c4.3-3.7,9-4.9,14.5-3
		c1.2,0.4,2.6,0.3,3.9,0c11.8-3.2,23.8-5.4,36.1-6.2c5.4-0.3,6.8-2.9,4.8-8c-1.1-2.8-2.7-4.9-5.8-6c-13.4-4.8-26.7-9.8-40.1-14.5
		c-1.7-0.6-3.8-0.1-6.1-0.1c2.5,10.2,0.4,19.1-5.8,27c-6.1,7.8-14.5,11.6-24.2,12.7c7.9-3.4,14.6-8.4,19.6-15.5s7.7-14.9,6.4-22.7
		c-6.5-2-12.2-3.7-17.9-5.4c-4.2-1.2-8.5-2.3-12.7-3.5c0.7,4.5,1.3,8.1,1.9,12.4c-2.6-0.9-4.1-1.5-5.7-2c-2.5-0.8-5-0.6-6.6,1.8
		c-1.7,2.4-0.4,4.8,1.1,6.7c1.2,1.5,2.7,2.7,4.3,4.1c-6.2,4.6-12.6,5.3-19,1.8C198.6,199.6,196.7,191.7,198.8,183.3z M340.7,211.4
		c0-0.3-0.1-0.5-0.1-0.8c-6-1.6-12-3.2-17.7-4.7c-1.2,3-2.4,5.8-3.7,9C326.4,213.9,333.8,214,340.7,211.4z M132.1,155
		c2.3,5.3,6.3,9.9,11.2,13.7c3.2,2.5,4.2,2.5,7.2,0.4C144.5,164.5,138.2,159.6,132.1,155z M214.5,187.5c0-0.5,0-1,0.1-1.4
		c-1.3-0.9-2.6-2.6-3.8-2.6c-1.3,0.1-3.2,1.6-3.5,2.9c-0.5,2,1,3.8,3.2,3.6C211.9,189.8,213.2,188.4,214.5,187.5z M258.6,183.9
		c0-0.5,0.1-0.9,0.1-1.4c-4.9-0.5-9.4-3.6-14.6-2.4c-0.1,0.4-0.1,0.8-0.2,1.2C248.8,182.2,253.7,183,258.6,183.9z M218.9,161.5
		c0-6,0-12,0-17.7C216.8,149.3,216.8,155.2,218.9,161.5z"/>
	<path style="fill:#FFFFFF;" d="M359,124.9c16.7,25.9,25.6,54.2,25.9,85.1C381.4,180.1,373.1,151.7,359,124.9z"/>
	<path style="fill:#FFFFFF;" d="M218.9,161.5c-2.2-6.2-2.1-12.2,0-17.7C218.9,149.5,218.9,155.5,218.9,161.5z"/>
</g>
</svg>
