<?xml version="1.0" encoding="utf-8"?>
<!-- Generator: Adobe Illustrator 28.3.0, SVG Export Plug-In . SVG Version: 6.00 Build 0)  -->
<svg version="1.0" id="Layer_1" xmlns="http://www.w3.org/2000/svg" xmlns:xlink="http://www.w3.org/1999/xlink" x="0px" y="0px"
	 viewBox="0 0 851 353" style="enable-background:new 0 0 851 353;" xml:space="preserve">
<g>
	<path style="fill:#052D55;" d="M339.1,94.5c3.4,7.7,6.8,15.4,10.2,23.1c0.3-0.1,0.5-0.2,0.8-0.3c-2.5-7.6-5-15.2-7.5-22.9
		c0.2-0.1,0.3-0.1,0.5-0.2c1.6,3.3,3.2,6.6,4.9,9.9c6.7,13.3,13.2,26.7,17.4,41.1c0.9,3.3,1,6.8,0.7,10.3
		c-2.4-5.6-4.8-11.2-7.2-16.7c-0.3,0.1-0.6,0.2-0.8,0.3c1.9,6.5,3.8,13.1,5.9,20.5c-6-1-10.9-1.9-15.9-2.7
		c-36.3-6.1-72.6-12.3-108.9-18.2c-32-5.1-64.2-7.1-96.5-5.2c-26.4,1.5-52.7,4.9-79,7.5c-7.1,0.7-14.2,1.5-21.1,3.1
		c-9.7,2.2-19.2,5.2-28.4,7.8c0.6-0.5,1.6-1.4,2.7-2.3c1.2-1,2.4-2,3.6-3c16.6-13.6,33-27.5,49.9-40.7C79.8,98.3,90,91.4,100.3,85
		c10-6.1,21.3-9,33.1-9.2c29.6-0.7,59.2-1.3,88.8-1.8c4.9-0.1,9.8,0.7,14.6,0.9c1,0,2-0.5,3-0.8c0-0.3,0.1-0.6,0.1-1
		c9.5,5.2,19,10.4,28.5,15.6c0.1-0.2,0.2-0.3,0.3-0.5c-4.6-3.3-9.3-6.7-13.9-10c13.6,6.4,24.2,17.2,36.3,25.7
		c0.2-0.3,0.5-0.6,0.7-0.9c-12.3-10.7-24.6-21.4-36.9-32.1c0.3-0.4,0.6-0.8,0.9-1.2c8.3,5.5,16.7,11.1,25,16.6
		c0.1-0.2,0.3-0.3,0.4-0.5c-1.9-1.6-3.8-3.1-5.7-4.7c0.2-0.2,0.3-0.4,0.5-0.6c9.6,7,19.1,14,28.7,21c0.2-0.3,0.5-0.5,0.7-0.8
		c-6.6-6.2-13.3-12.4-19.9-18.5c0.2-0.2,0.4-0.5,0.6-0.7c10.2,8.3,20.5,16.7,30.7,25c0.1-0.1,0.3-0.2,0.4-0.3
		c-8.6-9.7-17.3-19.3-25.9-29c0.2-0.2,0.5-0.5,0.7-0.7c13.4,8.1,24.8,18.6,35.2,30.3c0.2-0.2,0.4-0.4,0.7-0.6
		c-5.8-7.9-11.6-15.9-17.4-23.8c0.4-0.3,0.7-0.6,1.1-0.8c7.5,8.8,15,17.7,23,27c-4.6-9.8-9-19.1-13.4-28.3c0.3-0.2,0.7-0.3,1-0.5
		c7.3,11.7,14.7,23.4,22,35.1c0.2-0.1,0.3-0.1,0.5-0.2c-2-6.6-4.1-13.2-6.1-19.9C338.7,94.6,338.9,94.6,339.1,94.5z M234.2,78
		c4.7,1.6,9.4,3.2,14.1,4.8c0.1-0.4,0.2-0.7,0.4-1.1c-4.8-1.6-9.5-3.1-14.3-4.6c-0.4-0.1-0.9,0.5-1.4,0.8
		c-7.1-1.8-14.3-2.1-21.6-0.3c18.7,1.8,35.9,8.4,52.3,17.3c-0.3-0.8-0.8-1.1-1.4-1.5c-7.5-5.8-15.7-10.4-24.6-13.7
		C236.5,79.2,235.3,78.5,234.2,78z M181,83c4.8,0.3,9.2,0.3,13.6,0.8c7.4,0.7,14.9,1,22.1,2.6c20.7,4.8,38.7,15.3,55.4,28.2
		c5.4,4.1,11.7,7,17.5,10.4C268.4,100.1,200.9,74.4,181,83z M253.8,83.8c2.6,5.2,50.6,42.5,55.5,43.5
		C292.4,110.9,273.8,97.3,253.8,83.8z M225.4,101.7c-14.3-11-30.2-15.5-48.1-12.4C193.9,91.4,209.7,96.3,225.4,101.7z M279.6,125.9
		c-10.6-7.3-22.9-10.6-34.5-15.4C255.9,117.3,266.7,123.9,279.6,125.9z M176.7,98.9c0,0.2,0,0.4,0,0.6c16.1,5.9,32.2,11.7,48.3,17.6
		c0.1-0.4,0.3-0.8,0.4-1.2c-14.6-5.6-29.2-11.2-43.9-16.6C180.2,98.7,178.4,99,176.7,98.9z M333.9,135.9
		c-9.4-10.9-21.7-25.4-31.8-32.7C310.6,112,323.9,125.6,333.9,135.9z M246.9,108.8c-9.8-4.7-17.8-13.3-29.5-14.3
		C227.3,99.3,235.5,107.2,246.9,108.8z M81,107.1c0.2,0.2,0.5,0.4,0.7,0.6c6.9-3.8,13.7-7.5,20.6-11.3c-0.8-0.6-1.4-0.8-1.8-0.6
		c-5.8,2.6-11.7,5.2-17.4,8.1C82.1,104.3,81.7,106,81,107.1z M238.8,127.2c0.1-0.4,0.3-0.9,0.4-1.3c-12.7-2.8-25.4-5.5-38-8.3
		c-0.1,0.4-0.2,0.7-0.2,1.1C213.5,121.5,226.1,124.3,238.8,127.2z M133.9,88.4c10.5-2.3,21-4.7,31.5-7
		C154.4,81.8,143.8,83.7,133.9,88.4z M111.3,86.5c7.2-1.6,14.5-3.2,21.7-4.7c-0.1-0.3-0.1-0.6-0.2-0.9
		C125.1,80.2,118.2,83.4,111.3,86.5z M44.9,129.7c0.2,0.2,0.4,0.5,0.6,0.7c6.5-4.2,13.1-8.4,19.6-12.7c-0.3-0.4-0.6-0.9-0.8-1.3
		C57.4,120.3,51.3,125.3,44.9,129.7z M220.6,106.7c-0.2,0.4-0.3,0.7-0.5,1.1c6.9,3,13.9,6,20.8,9c0.2-0.4,0.4-0.8,0.5-1.3
		C234.5,112.5,227.5,109.6,220.6,106.7z M323.5,143.1c0.2-0.3,0.3-0.5,0.5-0.8c-5.6-3.7-11.2-7.4-16.8-11.2
		c-0.2,0.3-0.3,0.5-0.5,0.8C311.2,137.3,318.1,139,323.5,143.1z M110.8,105.1c-0.1-0.3-0.2-0.5-0.3-0.8c-5.5,2.4-12.1,1.9-16.8,6.3
		c0.1,0.3,0.2,0.6,0.3,0.9C99.6,109.3,105.2,107.2,110.8,105.1z M181.8,108.7c0.1,2.4,7,4,13.2,3.1
		C190.7,110.8,186.4,109.8,181.8,108.7z M166.3,96.6c0.1-0.5,0.1-1,0.2-1.4c-2.8-0.4-5.7-0.9-8.5-1.3c-0.1,0.3-0.1,0.7-0.2,1
		C160.6,95.5,163.4,96,166.3,96.6z M155.9,105.1c0-0.4,0-0.8,0.1-1.3c-2.4-0.1-4.8-0.2-7.3-0.3c0,0.3,0,0.7,0,1
		C151.1,104.7,153.5,104.9,155.9,105.1z"/>
	<path style="fill:#052D55;" d="M579.6,41.7c-4.4,4.6-8.7,9.3-13.1,13.9c0.2,0.2,0.3,0.3,0.5,0.5c8.1-6.8,16.2-13.6,24.6-20.7
		c0.4,0.9,0.7,1.4,1,1.9c21.6-6.4,43.7-10.3,65.8-14.2c14-2.5,28.1-4.8,42.2-6.6c15-1.9,29.2,1.4,42.8,7.6
		c9.2,4.2,18.4,8.4,27.5,12.9c22.3,11.1,44.5,22.5,66.7,33.7c0.2,0.1,0.3,0.3,1,1c-5.6-0.6-10.7-1-15.8-1.8
		c-20-3.1-40.2-2.7-60.3-1.2c-17.2,1.3-34.4,2.7-51.5,4.8c-35.1,4.4-69.4,12.7-102.5,25c-33.2,12.2-66.1,25.2-99.1,37.9
		c-6.4,2.5-12.9,4.9-19.3,7.4c-0.7,0.3-1.4,0.4-2.8,0.8c-0.3-2.5-1-4.8-0.7-7c1.8-11,3.6-21.9,5.7-32.8c1.9-9.8,4.1-19.5,6.8-29.2
		c-0.7,7-1.4,14-2.1,21c0.2,0.1,0.4,0.1,0.6,0.2c4.9-12.9,9.7-25.7,14.6-38.6c0.4,0.1,0.7,0.2,1.1,0.3c-2.4,9.9-4.9,19.9-7.5,30.5
		c5.9-10.7,11.5-20.8,17-30.9c0.4,0.2,0.8,0.4,1.2,0.6c-4.1,9-8.2,18.1-12.4,27.1c8.7-13.2,17.8-25.9,29.4-36.6
		c0.3,0.2,0.6,0.4,0.8,0.5c-6.4,10.9-12.7,21.7-19.1,32.6c0.2,0.1,0.4,0.2,0.6,0.3c8.2-10,16.5-20,24.7-30c0.2,0.2,0.5,0.4,0.7,0.6
		c-5.4,7.5-10.8,15.1-16.2,22.6c0.3,0.2,0.5,0.4,0.8,0.7c7.9-8.6,15.8-17.3,23.6-25.9c0.2,0.1,0.4,0.3,0.5,0.4
		c-1.2,1.6-2.5,3.1-3.7,4.7c0.2,0.1,0.3,0.3,0.5,0.4c6.9-6.9,13.8-13.7,20.6-20.6c0.4,0.3,0.7,0.6,1.1,1
		c-10.1,13.1-20.1,26.3-30.2,39.4c0.3,0.2,0.6,0.5,0.8,0.7C557.5,64.9,566.5,51.4,579.6,41.7z M597.5,39.8
		C583,49.5,574,57.4,572.7,62c13.8-12.3,28.9-21.7,46.2-27.5c-6.7-0.1-13.1,0.8-18.8,4.3c-0.3-0.3-0.8-0.9-1-0.9
		c-5.6,1.7-10.5,4.7-15,9.3C588.9,44.5,593.2,42.2,597.5,39.8z M553.2,95.8c4.5-3.9,9.3-7.6,13.6-11.7c6.8-6.7,13-14.1,20.1-20.4
		c15.1-13.4,32.1-23.4,52.4-27c3.8-0.7,7.4-1.9,11.1-2.9C627.1,30.8,565.9,69.7,553.2,95.8z M579.6,50.1
		c-7.7,4.5-42.5,45.5-45.7,53.3C550.9,87,565.1,68.4,579.6,50.1z M610.4,61.5c14.6-9,29.7-16.9,46-22.6
		C637.6,39.5,622.5,47.5,610.4,61.5z M561.6,96c7.6-1.9,27.5-16.3,32.1-22.9C583.1,80.5,571.4,86.2,561.6,96z M659.2,48.4
		c-6.8,0.8-38,20-44,26.9C630,66.3,644.3,57.5,659.2,48.4z M687.3,47.9c-4.9-0.4-39.5,13.4-43.3,17c0.1,0.3,0.2,0.6,0.4,0.9
		C658.4,59.8,672.5,54,687.3,47.9z M540.7,73.4c-12.4,13-21.2,28.4-29.4,44.3C521.1,102.9,530.9,88.1,540.7,73.4z M590.8,72.4
		c5.8-1.7,23.6-15.8,26.4-20.5C606,55.7,599.8,65.8,590.8,72.4z M649.1,74.8c8.5-0.6,16.1-4.1,23.2-9.4c-1.2-0.7-2.7-1.5-3.7-1
		C662.1,67.8,655.6,71.3,649.1,74.8z M602.4,87.2c0.2,0.4,0.4,0.8,0.6,1.2c11.7-5.3,23.5-10.5,35.2-15.8c-0.2-0.3-0.3-0.7-0.5-1
		C626.1,76.8,614.2,82,602.4,87.2z M699.1,29.2c-12.1-2.3-23.3-1.9-34.5,0C675.8,29.2,687,29.2,699.1,29.2z M697.5,22
		c0,0.3,0,0.6,0,0.9c7,0,14,0,21,0C711.5,21.3,704.5,19.8,697.5,22z M598.1,77.5c0.3,0.4,0.6,0.8,0.8,1.2
		c6.7-4.7,13.5-9.5,20.2-14.2c-0.2-0.3-0.4-0.6-0.6-0.9C611.7,68.3,604.9,72.9,598.1,77.5z M525.1,118.2c4-3.8,9.8-5.9,12.4-12.3
		C532.9,110.5,529,114.4,525.1,118.2z M676.2,40.7c-0.1-0.4-0.2-0.8-0.3-1.2c-2.8,1.1-5.5,2.2-8.3,3.2c0.1,0.4,0.3,0.8,0.4,1.2
		C670.7,42.8,673.5,41.8,676.2,40.7z"/>
	<path style="fill:#052D55;" d="M142.3,204.6c5.4-2.8,10.6-6,16.2-8.3c44.8-18.2,88.9-15.9,132.2,5.2c0.6,0.3,1.2,0.6,1.7,1
		c0.1,0.1,0.2,0.3,0.6,1c-2.1-0.9-3.7-1.5-5.3-2.2c-28.7-11.8-58.4-16.3-89.2-12.1c-10.7,1.4-21.3,4.3-31.9,6.7
		c-0.8,0.2-2.1,1.8-2,2.6c1.1,11.8,6.3,21.2,16.6,27.4c0.4,0.3,0.9,0.4,2.4,1c-4.3-5.8-7.4-11.2-7.8-17.7c2.1,6.1,5.1,11.5,9.8,16.1
		c1.8,1.8,3.7,2.3,6.2,0.7c-7.2-10.1-8.5-21.1-5.5-33.1c0.3,5.1,0.5,9.9,0.8,14.8c0.3,0,0.6,0,1,0c0-3.6,0-7.3,0-10.9
		c1.8,10.6,4.8,20.4,14.4,26.8c-0.7-6.2-1.4-12.2-2-18.1c0.3-0.1,0.6-0.1,1-0.2c-0.1,6.5,3.1,11.5,6.8,16.3c2.5,3.2,5.6,3.9,9.6,2.9
		c-3.8-8.4-4.2-16.8-0.5-25.2c-0.2,1.6-0.5,3.2-0.7,4.8c-0.2,1.6-0.3,3.3,0.2,5c0.4-2,0.8-3.9,1.3-6.3c2.8,8.2,4,16.6,10.5,22.8
		c-2-9.4,1.2-17,7.6-24.3c-0.2,3.1-0.7,5.5-0.6,8c0.2,5.1,0.6,10.2,0.9,15.3c0.1,1.7,0.6,3.1,2.7,3c2.2,0,4.8,2,6.4-1.4
		c2.3-4.9,4.7-9.8,7-14.4c2.3,5.8,1,12-0.9,18c4.5,0.6,10.1-5.6,15.5-16.7c-0.2,4.8-1.5,7-10.6,17.8c5.7-0.1,11.8-11.1,12.7-22.5
		c1.9,9-0.7,17-5.7,24.6c5.1,1.2,10.8-6.7,15.4-20.9c0.3,0.1,0.6,0.2,0.9,0.2c-1,4-1.6,8.2-3.2,11.9c-1.7,3.8-4.4,7.1-7,11
		c8.3,1.5,13.7-4.3,20.4-7c-4.1,3-8.3,6-12.4,9c6,3.5,12,4.4,18.2-0.2c4.7-3.5,9.7-6.5,12.2-12.2c-1.6,7.7-5.5,13.9-11.4,18.9
		c8.2,6.1,16.1,3.5,24-0.4c0.1,0.3,0.2,0.6,0.3,0.9c-3.3,1.8-6.6,3.5-10.7,5.7c7.6,2.1,14.1,0.4,20.8-1.1c-1.7,0.9-3.3,1.8-5,2.5
		c-1.7,0.8-3.4,1.4-6,2.4c4.5,1.7,8.1,3.2,11.8,4.5c12.8,4.2,25.6,8.3,38.3,12.6c1.7,0.6,3.2,2,4.8,3c-1.6,1-3.1,2.4-4.9,3
		c-13.6,4.9-27.7,7-42,8.7c-9.8,1.2-19.5,3.2-29.6,4.9c3.6,4.4,6.8,8.3,9.9,12.1c-0.2,0.2-0.4,0.4-0.6,0.6
		c-7.1-4.1-13.1-11.4-22.9-9.1c4.7,8.3,9.1,16.3,13.5,24.1c-6.8-6.1-13.3-12.4-20.3-18.1c-4.4-3.6-5.8-3.3-11.7-0.4
		c3.8,5.5,5.4,11.6,5,18.8c-2.8-5.6-5.4-10.6-8-15.7c-0.3,0.1-0.6,0.2-0.9,0.3c3.5,6.9,5.4,13.9,3.5,22c-0.2-0.5-0.4-0.7-0.4-0.9
		c-0.6-9-5.9-15-12.5-20.4c-2.5-2.1-4.8-0.4-7-0.2c1.1,3.4,2.1,6.6,3,9.7c-0.3,0.1-0.5,0.3-0.8,0.4c-1.3-1.9-2.7-3.8-3.8-5.8
		c-1.7-3.3-4.1-4.4-7.6-3.2c-0.8,0.3-1.7,0.3-3.1,0.6c3.2,11,1,21.2-3.4,30.8c-1.9-8.9-4-18.1-5.8-27.4c-0.5-2.5-1.5-3.5-4-3
		c-0.9,0.2-1.8,0.2-2.7,0.1c-2.2-0.3-2.7,0.8-3.1,2.8c-0.8,5.3-2,10.6-3.5,15.9c-2.8-5.9-3.4-11.9-2.2-18.3
		c-4.3,6.2-5.7,13.3-7.5,20.3c-0.9-7.4,1.5-13.9,5.3-20.6c-4.6-0.5-8.6-1.6-12.3,2.1c-5.2,5.3-10.9,10-15.8,14.4
		c0.3-5.8,2-12.6,8-18.2c-7,0.4-14.6,8.4-23.5,23.9c1.6-9.4,6.6-16.6,14.1-22.4c-6,2.7-10.9,6.7-14.7,12.2c-1.1-3.9,0-6.4,6-14.2
		c-8.6,4-15,9.9-20.7,16.9c2.8-9.4,8.9-16.1,16.9-21.4c-5.2,0.7-9.1,4-13.1,6.9c-0.2-0.2-0.4-0.4-0.5-0.6c2.5-2.8,5-5.7,7.3-8.4
		c-4.2-3.2-6.2-3.3-11.3-0.2c-9.2,5.6-18.3,11.4-25.8,19.4c4.6-10.7,11.2-19.7,22-25.1c-0.1-0.3-0.1-0.7-0.2-1c-1.1,0-2.3-0.3-3.4,0
		c-5.5,1.8-10.9,3.7-16.6,5.2c3.5-2.3,7-4.6,10.4-6.9c-0.1-0.2-0.1-0.3-0.2-0.5c-6.5,2.3-13.1,4.5-19.6,7
		c-6.5,2.5-12.9,5.4-19.9,7.6c5-4.2,9.7-8.9,15.2-12.4c5.5-3.5,11.7-5.7,17.6-8.6c-1.3-1.7-3.1-1.8-5.5-0.9
		c-28.9,10.6-55.3,5.2-79.4-13c-3-2.2-5.3-5.3-7.5-8.4c5.1,4,10.2,8,15.3,12c0.2-0.2,0.4-0.5,0.6-0.7c-3-4.3-6.1-8.6-9.1-12.9
		c0.2-0.2,0.5-0.5,0.7-0.7c14,14,31.4,18.4,50.5,18.1c-12.7-3.7-26.5-4.9-36.3-15.4c2.2,1.3,4.5,2.6,6.7,3.9
		c-7.8-7.7-14.7-15.9-17.6-26.9c6.6,9.6,14.9,16.8,26.1,20.6c-5.3-3.8-10.6-7.6-15.8-11.3c0.1-0.1,0.2-0.2,0.3-0.3
		c5.3,2.8,10.6,5.7,16,8.3c2.6,1.2,5.5,1.8,8.2,2.7c0.4,0.1,0.8,0,0.8,0c-16.4-16.2-33-32.6-49.6-49c0.3-0.3,0.5-0.7,0.8-1
		c23.6,14.7,47.5,28.6,75.4,34.3c-11.6-9.8-16.9-22.1-15.6-37.2c0.1,0.6,0.1,1.1,0.2,1.7c-0.6,8.4,2.9,15.4,7.5,22
		c-2.5-7.3-5-14.7-7.5-22c1.9,2.6,3,5.7,4.7,8.3c3.4,5.3,7.7,10.2,12.2,14.8c2.8,2.8,6.6,4.7,10.3,6.7
		c-8.1-10.5-12.1-22.3-12.8-34.8c1.9,5.4,4,11.1,6.1,16.9c0.4-0.1,0.8-0.3,1.2-0.4c-0.9-2-1.7-3.9-2.6-5.9
		c5.6,8.5,12.8,14.9,23.1,19.3c-5.7-8.2-9.8-16.1-10.9-25.3c3.9,12.1,10.5,22.1,21.8,28.7c-6.7-11.4-6.6-23.8-5.3-36.4
		c0.1,1.1,0.1,2.3,0.4,3.4c0.4,1.3,1.1,2.5,1.7,3.7c0.1,1.3-0.2,2.8,0.4,3.9c5,9.9,13.1,16.3,23.2,20.6c0.7,0.3,1.5,0.4,2.3,0.7
		c-2.2-3.6-4.2-7-6.2-10.3c6.6,8.4,8.8,10.5,12.4,11c-10.8-8.8-11.8-20.7-11.1-33.4c-1.4,0.4-2.1,0.5-2.8,0.8
		C154.5,200,148.4,202.3,142.3,204.6z M213,247.2c-7.5,0.2-14.8,0.6-22.1,0.5c-4.2-0.1-5.6,0.7-4.5,4.8c4.6,17.7,14.9,30.8,32,38
		c2.3,1,5,1.3,7.5,2c-10.7,0.3-21-1.1-29.7-8c-10.7-8.5-14.7-20.2-14.3-34c-3.1,1.5-5.9,3.2-8.5,5.1c-2.5,1.8-4.5,4.4-7.2,5.8
		c-8.7,4.5-17.5,8.9-27.2,10.8c-1.5,0.3-3,0.9-4.6,1.3c2.9,2.4,5.2,4.3,7.7,6.2c0.5,0.4,1.2,0.6,1.8,0.7c5,0.5,9.6,1.8,13.1,5.7
		c0.3,0.3,0.8,0.6,1.1,0.6c5.1-0.3,8.9,2.8,13.3,4.3c10.3,3.4,20.8,6.3,32,5.8c6.7-0.3,13.5,0.4,20.2,0.7c0.7,0,1.3,0,2-0.1
		c9.2-1.7,18.4-3.4,27.6-5c2.3-0.4,4.8-0.7,7-0.2c5,1.2,8.9-0.5,12.6-3.6c4.3-3.7,9-4.9,14.5-3c1.2,0.4,2.6,0.3,3.9,0
		c11.8-3.2,23.8-5.4,36.1-6.2c5.4-0.3,6.8-2.9,4.8-8c-1.1-2.8-2.7-4.9-5.8-6c-13.4-4.8-26.7-9.8-40.1-14.5c-1.7-0.6-3.8-0.1-6.1-0.1
		c2.5,10.2,0.4,19.1-5.8,27c-6.1,7.8-14.5,11.6-24.2,12.7c7.9-3.4,14.6-8.4,19.6-15.5c5-7.1,7.7-14.9,6.4-22.7
		c-6.5-2-12.2-3.7-17.9-5.4c-4.2-1.2-8.5-2.3-12.7-3.5c0.7,4.5,1.3,8.1,1.9,12.4c-2.6-0.9-4.1-1.5-5.7-2c-2.5-0.8-5-0.6-6.6,1.8
		c-1.7,2.4-0.4,4.8,1.1,6.7c1.2,1.5,2.7,2.7,4.3,4.1c-6.2,4.6-12.6,5.3-19,1.8C212.8,263.5,210.9,255.6,213,247.2z M354.9,275.3
		c0-0.3-0.1-0.5-0.1-0.8c-6-1.6-12-3.2-17.7-4.7c-1.2,3-2.4,5.8-3.7,9C340.6,277.8,348,277.9,354.9,275.3z M146.3,218.9
		c2.3,5.3,6.3,9.9,11.2,13.7c3.2,2.5,4.2,2.5,7.2,0.4C158.7,228.4,152.4,223.5,146.3,218.9z M228.7,251.4c0-0.5,0-1,0.1-1.4
		c-1.3-0.9-2.6-2.6-3.8-2.6c-1.3,0.1-3.2,1.6-3.5,2.9c-0.5,2,1,3.8,3.2,3.6C226.1,253.7,227.4,252.3,228.7,251.4z M272.8,247.8
		c0-0.5,0.1-0.9,0.1-1.4c-4.9-0.5-9.4-3.6-14.6-2.4c-0.1,0.4-0.1,0.8-0.2,1.2C263,246.1,267.9,246.9,272.8,247.8z M233.1,225.4
		c0-6,0-12,0-17.7C231,213.2,231,219.1,233.1,225.4z"/>
	<path style="fill:#052D55;" d="M614.4,225.5c-8.6-8.1-10.1-17.4-8.3-27.7c0.6,9.5,2.6,18.3,12.7,23.7c-1.5-2.2-2.7-3.8-3.9-5.5
		c3.3,2.1,6.4,4.4,9.7,6.1c3.5,1.8,5.3,0.5,5.2-3.4c-0.1-5.2-0.6-10.4-0.3-15.8c1.1,6.1,2.2,12.1,3.3,18.2c4.4,0.3,4.9,0,6.5-4.3
		c3-7.8,2.2-15.7,0.5-23.7c-0.3-1.5-0.7-2.9-1.2-4.8c6.1,9.4,11.1,18.6,10,30.4c4.1-0.7,7.9-1.2,11.7-2c0.8-0.2,1.6-1.5,2.1-2.4
		c4.2-8.1,5.2-16.7,3.4-25.6c-0.6-3-1.1-6.1-1.5-9.2c4.9,11.1,9.3,22.3,9.8,34.8c2.4,0.5,3.7-0.6,4.8-2.5c3.3-6.1,4.3-12.6,3-19.4
		c0.3,0,0.6-0.1,0.9-0.1c1.1,6.4,2.2,12.7,3.4,19.4c9.8-6.9,16.2-15.7,16.4-28.9c2.6,8,1.6,14.7-3.9,27.5c2.2,0.8,3.2-0.5,3.6-2.1
		c1.3-5.7,2.4-11.4,3.3-15.9c0.1,1.6,0.5,4.8,0.4,7.9c-0.1,3.1-0.8,6.1-1.2,9.3c11.5,1.3,12-8.5,16.3-15c-1.6,4.4-3.1,8.8-4.8,13.3
		c2.7,0.2,4.6-0.6,6.3-2.8c6.1-8,9-17,8.5-27.1c2.8,9,2,18.2,1.1,27.5c2.6-2.3,2.7-5.7,3.2-8.7c0.5-3.2,0.6-6.4,1.6-9.5
		c-0.3,5.7-0.6,11.4-0.9,18c3-1,6.4-1.4,8.9-3.2c7.4-5,12.9-11.9,17-19.9c-1.7,4.7-3.3,9.4-5,14c5.3-1.1,12.9-9.3,21-22.1
		c-1,2.4-1.9,4.9-3,7.3c-1.1,2.4-2.4,4.8-3.8,7c-1.4,2.4-3,4.6-4.1,7.6c4.8-3,9.6-5.8,14.3-9c4.8-3.2,9.5-6.6,14.2-10
		c4.7-3.4,9.2-7,13.8-10.5c4.5-3.6,9-7.3,13.5-11c4.4-3.7,8.8-7.4,13.2-11.1c0.3,0.2,0.6,0.5,0.9,0.7c-16.7,25-33.4,50-50.2,75.2
		c9.4-3.3,18.6-7.5,26.5-13.9c7.8-6.3,15-13.5,21.3-19.3c-6.3,10.1-15.5,19.6-25.8,28.3c2.1-1.2,4.2-2.5,6.3-3.7
		c0.1,0.2,0.3,0.4,0.4,0.5c-2.9,2.4-5.7,4.9-8.8,7.5c8.5-1,20.7-9.6,28.9-20.2c-1.6,8-11.9,20.9-22.2,27.9
		c-10.4,7.1-22,10.5-34.7,12.1c5.1,6.9,11,13.1,12,21.3c-7.3-6.2-14.8-12.5-22.3-18.9c-0.2,0.2-0.3,0.5-0.5,0.7
		c1.5,5.6,3.1,11.3,4.5,16.5c-8.3-6.9-16.5-13.8-24.8-20.6c-0.3,0.2-0.7,0.3-1,0.5c5.3,10,3.8,20,0.3,30.1
		c-2.8-8.9-6.2-17.7-12-25.3c2.3,7.6,4.2,15.1,3.1,23.2c-0.7-1.5-1.4-2.9-2-4.4c-2.9-7.1-6.9-13.5-12.1-19.1
		c-3.8-4.1-6.1-4.8-12.4-3.5c3.6,9.4,3.8,18.7-0.3,27.9c-1.3-5.5-2.2-11.1-4-16.4c-1.4-3.9-3.9-7.4-6.2-11c-0.5-0.8-2-1.2-3-1.3
		c-0.3,0-0.9,1.5-1.1,2.4c-0.4,1.7-0.6,3.4-0.9,5.3c-0.8-0.4-1.3-0.6-1.9-0.9c-0.4,3.3-0.7,6.5-1,9.6c-0.2,0-0.3,0-0.5,0
		c-1.8-4.8-3.6-9.7-5.4-14.5c-0.9-2.4-2.5-3.2-5.3-2.1c6.1,9.2,8.4,19.2,6.9,30.1c-1-10.4-4.2-20-10.1-28.7c1.6,6.8,2.1,13.5-0.9,20
		c-0.6-7-2.4-13.5-6.4-19.3c-1.6-2.3-3.4-3.4-6.4-3.2c-3.7,0.3-7.5,0.1-11.5,0.1c-0.1,5.7-1.1,11-4.6,16.1c-1-5.7-1.8-10.8-2.7-15.8
		c-13.1-0.9-25,1.9-36,9.2c1-2,1.9-4,3.2-6.5c-7,1.2-13.5,2-19.9,3.3c-16.7,3.4-33.3,7-49.9,10.5c-1.9,0.4-4,0.5-6,0.4
		c-0.8,0-1.5-1-2.3-1.5c0.6-0.6,1-1.5,1.7-1.8c5.2-2,10.4-3.9,15.6-5.7c14.8-5.4,29.7-10.7,44.5-16.1c0.5-0.2,0.9-0.5,1.3-0.8
		c-4.2-3.3-8.2-6.5-12.3-9.7c0.1-0.2,0.2-0.3,0.4-0.5c3.9,1.6,7.8,3.1,11.8,4.7c0.1-0.2,0.3-0.4,0.4-0.6c-1.5-2.5-2.9-5-4.4-7.5
		C599.6,221.2,604.2,227.6,614.4,225.5z M744.3,251.6c0.1-0.1,0.2-0.1,0.3-0.2c-1-3.3-2-6.5-3.1-9.8c-1-3.1-1.4-3.2-4.4-1.8
		C739.5,243.8,741.9,247.7,744.3,251.6z M644.4,219.2c3-1.2,2.9-11.8,0-18C644.4,206.6,644.4,212.8,644.4,219.2z M769.2,251.1
		c-1.4-5.7-6.2-11.8-8.9-11.5C763.2,243.5,766.2,247.3,769.2,251.1z M732.5,251.1c0.4-0.1,0.7-0.3,1.1-0.4
		c-1.3-3.7-2.6-7.5-3.8-11.2c-0.4,0.2-0.8,0.3-1.2,0.5C729.9,243.6,731.2,247.4,732.5,251.1z"/>
	<path style="fill:#052D55;" d="M582.9,181.6c46.6-35.7,108.2-40.5,159.2-18C686.3,145.5,633.3,152.6,582.9,181.6z"/>
	<path style="fill:#052D55;" d="M373.2,188.8c16.7,25.9,25.6,54.2,25.9,85.1C395.6,244,387.3,215.6,373.2,188.8z"/>
	<path style="fill:#052D55;" d="M476.6,259.4c-3.1-28,1.5-54.8,13.2-80.4C481,205.1,476.9,231.9,476.6,259.4z"/>
	<path style="fill:#052D55;" d="M233.1,225.4c-2.2-6.2-2.1-12.2,0-17.7C233.1,213.4,233.1,219.4,233.1,225.4z"/>
</g>
</svg>
