<?xml version="1.0" encoding="utf-8"?>
<!-- Generator: Adobe Illustrator 28.3.0, SVG Export Plug-In . SVG Version: 6.00 Build 0)  -->
<svg version="1.0" id="Layer_1" xmlns="http://www.w3.org/2000/svg" xmlns:xlink="http://www.w3.org/1999/xlink" x="0px" y="0px"
	 viewBox="0 0 255.9 80" style="enable-background:new 0 0 255.9 80;" xml:space="preserve">
<path style="fill:#EBBD60;" d="M179.3,31.8L179.3,31.8c-0.1,0.3-1.7,0.6-3.5,0.5c-3.7-0.1-3.4-0.9,0.8-1.6
	C179.2,30.3,179.8,30.5,179.3,31.8 M145.4,30.4c-0.3-0.1-0.4-0.2-0.2-0.4c0.2-0.1,0.5-0.1,0.6,0.1C145.9,30.4,145.7,30.5,145.4,30.4
	 M125.3,30.2c-1.9,0-3.9,0.1-4.4,0.2c-1.1,0.2-1.6-0.9-0.7-1.4c1.1-0.6,8.8-0.1,8.7,0.6C128.7,29.9,127.1,30.2,125.3,30.2
	 M118.1,30.1c-0.6-0.1-3.1,0.1-5.7,0.4s-5.2,0.6-5.9,0.7c-0.7,0.1-1.3-0.1-1.3-0.5c-0.1-0.6,2.3-1.6,4.5-1.9c7-0.9,9.4-0.6,9.4,0.9
	C119.2,30,118.7,30.2,118.1,30.1 M103.8,30.8c-0.4-0.1-0.6-0.2-0.3-0.3c0.2-0.1,0.6-0.1,0.8,0.1C104.5,30.8,104.3,30.9,103.8,30.8
	 M103,30.7c0,0.8-1.5,1.1-1.9,0.4c-0.2-0.3-0.1-0.5,0.5-0.4c0.5,0,1-0.1,1.1-0.3C102.8,30.3,103,30.4,103,30.7z M88.4,35.5
	c-0.9,0.6-1.9,0.5-1.9-0.2c0-0.4,0.5-0.5,1.2-0.4C88.7,35,88.8,35.1,88.4,35.5 M85.7,35.8c-0.2,0-0.9,0.1-1.6,0.2
	c-0.8,0.2-1.2,0-1.3-0.5c-0.1-0.5,0.1-0.8,0.4-0.8s1.1,0,1.7-0.1c0.6,0,1.1,0.2,1.1,0.6C86.1,35.5,85.9,35.8,85.7,35.8 M82.2,35.8
	c-0.2,0.5-1.1,0.5-5.9,0.3c-1.8-0.1-4.7-0.2-6.3-0.2c-1.7,0-2.7-0.3-2.5-0.5c0.3-0.3,2.9-0.5,5.8-0.6s6.1-0.2,7.1-0.3
	C82,34.3,82.6,34.7,82.2,35.8 M61.6,66.6c-8.3-0.1-10.1-0.4-10.6-2.2c-0.3-1.2,17.1-0.4,17.6,0.8C68.9,65.8,64.9,66.6,61.6,66.6
	 M50.3,66.8c-0.5-0.1-0.5-0.2-0.2-1c0.3-1,0.7-0.7,0.7,0.5C50.9,66.6,50.6,66.8,50.3,66.8 M65,35.2c0.3-0.1,0.7,0,1,0.1l0,0
	c0.2,0.2,0,0.3-0.6,0.2C64.9,35.5,64.7,35.3,65,35.2 M31.6,30c-0.4,0.8-1,0.7-1-0.1c0-0.4,0.3-0.6,0.6-0.6
	C31.7,29.4,31.8,29.6,31.6,30 M23,34.3c-1.8-0.7-3.7-1.4-4.2-1.6s-0.9-0.5-0.9-0.8c0-0.9,9.4,2,12.4,3.7
	C32.2,36.8,26.6,35.8,23,34.3 M206.7,0.7c-1.3,0-4.6-0.1-7.2-0.3c-2.7-0.2-5.6-0.3-6.4-0.2c-0.9,0-3.5,0-5.8,0
	c-4.3-0.1-5.6-0.1-7.9,0.2c-0.7,0.1-2.8,0.3-4.6,0.4s-3.4,0.4-3.6,0.5c-0.1,0.1-2,0.4-4,0.5c-2.1,0.1-4.6,0.4-5.6,0.6
	s-3.3,0.5-5,0.6s-4.2,0.4-5.6,0.6c-1.4,0.2-5.3,0.3-8.6,0.2c-3.3,0-6.6-0.1-7.2,0c-0.7,0-5.2-0.3-10.1-0.7
	C112.7,2,107.3,2.2,101.6,4c-1.2,0.4-4.5,1.1-7.3,1.7c-2.8,0.5-5.3,1.1-5.5,1.2s-1.1,0.3-2,0.4S83.2,7.6,81,7.9
	c-2.3,0.2-5,0.5-6,0.5c-1,0.1-3.3,0.2-4.9,0.3c-1.7,0.1-4.2-0.1-5.5-0.4C63.3,8,62.1,7.9,62,8.2c-0.1,0.3-0.3,0.7-0.6,0.9
	C61.1,9.4,61,9.2,61,8.4c0-0.9-0.1-1-0.5-0.7c-0.3,0.2-2.7,0.2-5.4,0s-5.7-0.2-6.7,0c-1,0.1-3.3,0-5-0.3s-4.6-0.8-6.4-1
	c-1.8-0.2-3.2-0.7-3.2-1s-1.9-0.7-4.4-0.9C25.3,3.9,24.8,3.7,25,3c0.2-0.5,0.6-1.1,1-1.4S26.6,1,26.4,1c-0.2-0.1-1,0.5-1.9,1.3
	c-1.3,1.2-1.9,1.4-4,1.1C15.9,2.7,4,3.5,3.8,4.5c-0.6,3-0.9,3.8-1.6,4.9c-0.9,1.4-1,2-0.5,4.9c0.4,2.6,0.7,3.2,2.2,4.4
	c0.6,0.5,1.3,1.3,1.6,1.7c0.2,0.5,1.6,0.9,3.7,1.2c2.6,0.3,3.4,0.6,3.4,1.3c0.1,0.7-0.1,0.8-0.8,0.3c-0.6-0.4-0.8-0.3-0.6,0.2
	c0.2,0.4,0.6,0.8,0.9,0.8c0.3,0,0.7,0.4,0.8,0.8c0.1,0.5,1.3,0.9,3.2,1.1c2.5,0.3,3,0.6,2.9,1.3c-0.1,1,0.3,1.3,0.6,0.4
	c0.1-0.3,1.3-0.6,2.7-0.7c1.9-0.1,2.4,0.1,2.2,0.6c-0.2,0.6-0.1,0.6,0.8,0.4c1.2-0.3,5.1,0.9,5.1,1.6c0,0.3-1,0.6-2.2,0.7
	c-2.3,0.3-3.2,0.2-7.8-0.2c-2.8-0.3-2.8-0.3-2.8,1.2v1.5l-6.4,0.3c-7.2,0.3-9.8,1-10.8,3c-0.4,0.7-0.5,1.2-0.3,1
	c1.5-1.4,3.8-2.2,6.7-2.4c0.8-0.1,2.5-0.2,3.7-0.3c3.3-0.3,13.8,1.4,15.5,2.5c1.5,1,2.7,1.4,5.2,1.8l1.5,0.3l-0.1,2.4
	c-0.1,2.1-0.2,2.4-0.7,2.5c-0.3,0.1-1.3-0.4-2.3-1c-1.2-0.8-1.8-0.9-1.9-0.5s-1.1,0.5-2.6,0.2c-1.6-0.3-2.4-0.2-2.4,0.2
	s0.1,0.7,0.3,0.7c0.2,0,2.6,0.4,5.4,0.9l5.1,0.8l0.4,3.1c0.4,2.8,0.6,3.2,1.5,4.2c1,1,4.3,2.2,9.5,3.3c3.4,0.7,5.3,1.7,5.3,2.6
	c0,0.5-0.5,0.8-1.7,1c-2.1,0.3-7.2-0.6-7-1.2c0.1-0.6-0.8-1.3-1-0.7c-0.3,0.8-3.5,1.4-6,1.1c-1.4-0.2-3.9-0.2-5.6,0
	s-6.1,0.2-9.6,0.1c-3.5-0.1-6.7-0.2-7-0.1c-0.9,0.2-0.8,0.8,0.1,1.5c1.2,0.9,10.7,1.8,12.3,1.2c0.7-0.3,2.2-0.4,3.2-0.2
	c1.1,0.1,2.3,0.1,2.7,0c1.5-0.5,12.9,0.6,13.1,1.3c0.3,0.8,4.1,1.6,5.3,1.2c0.7-0.3,0.7-0.2,0.7,1.4c0,0.9-0.1,1.6-0.2,1.7
	c-1,0.2-2.9,0.2-7.9-0.2c-5.8-0.4-7-0.2-6.4,0.9c0.3,0.6,3.6,2.2,5.7,2.8c2.2,0.6,14.4,2.1,14.3,1.7c0-0.2,1.8-0.1,4,0.1
	c6.1,0.8,11.2,0.7,11.9-0.3c0.6-0.9,5.3-1.9,9.9-2.1c0.9,0,3-0.2,4.8-0.4c1.7-0.2,3.3-0.3,3.5-0.3s1.4-0.2,2.7-0.5
	c4-1,7.3-1.9,8.8-2.4c0.8-0.2,2.4-0.5,3.5-0.5c1.1-0.1,3.2-0.4,4.8-0.7c4.2-0.8,8.6-0.8,20.9,0.3c1.1,0.1,5.4,2.3,6.1,3.2
	c0.5,0.6,1.7,1.2,2.9,1.3c1.1,0.2,2.1,0.5,2.2,0.6c0.1,0.2,0.9,0.6,1.7,0.9c0.9,0.3,1.6,0.8,1.6,1.1c0.2,0.8,1.1,2.2,1.6,2.3
	c0.2,0,0.4,0.4,0.4,0.8c0.1,0.6,0.7,0.7,2.9,0.4c2.6-0.3,10.4-0.4,11.4-0.1c2.4,0.8,6.2,2.8,5.8,3c-0.3,0.2-2,0.3-3.8,0.3
	s-3.3,0.1-3.4,0.3c-0.2,0.5,7.8,0.7,9.3,0.2c0.7-0.2,2.3-0.5,3.5-0.5c2.4-0.1,5.8-0.7,8-1.3c0.8-0.2,2-0.4,2.7-0.3s1.8-0.1,2.5-0.3
	c0.7-0.3,1.9-0.7,2.6-1c0.7-0.3,2.2-0.7,3.3-0.9c1.1-0.2,2.6-0.6,3.3-0.8c0.7-0.3,2.2-0.6,3.4-0.9c1.1-0.2,2.6-0.6,3.2-0.9
	c0.6-0.3,1.7-0.6,2.4-0.7s3-0.4,5.1-0.6c2.1-0.3,4.3-0.7,5-1s2.4-0.5,3.9-0.5c3.6,0,5.5-0.3,5.5-1c0-1.1,1.1-2.2,2.5-2.5
	c0.8-0.2,1.8-0.4,2.3-0.5c0.9-0.2,1.4-0.7,0.6-0.8c-0.2,0-0.4-0.3-0.4-0.7c0-0.4,0.4-0.6,0.8-0.5c0.6,0.1,0.8-0.2,0.8-0.8
	c0-0.5,0.2-1.1,0.5-1.3c0.2-0.2,0.5-0.7,0.6-1s1.1-0.8,2.3-1s2.3-0.6,2.4-0.9c0.1-0.3,1.1-0.7,2.2-1c3-0.7,4.1-1.4,4.6-2.9
	c0.4-1.1,0.9-1.4,2.5-1.7s2-0.6,2-1.3c0-0.5,0-1.6,0.1-2.4c0.1-1.3,0.3-1.5,1.1-1.4c1.3,0.1,2.4-0.6,2.9-2.1c0.3-0.7,0.7-1.3,1-1.2
	c0.7,0.1,1.8-1,1.8-1.8c0-1,1.3-2.3,1.8-1.8s1-1,1-3c0-1.2-0.7-2.2-1.1-1.4c-0.3,0.7-3.3,1-3.4,0.3c0-0.3,0.3-1.7,0.7-3.2
	c0.9-2.9,0.9-4.5,0.1-2.9c-0.6,1.1-1.3,1.3-5.9,1.2c-2.8,0-3.1-0.2-2.9-1c0.1-0.5,0.5-1.1,0.8-1.3c0.3-0.2,0.5-0.5,0.4-0.6
	c0-0.2-0.4,0-0.8,0.3c-0.9,0.7-1.2,0-1.3-2.6c-0.1-3,0.4-4.1,2.4-4.6c1-0.3,1.9-0.7,2.1-1c0.4-0.6,0.5-1.8,0.1-1.9
	c-0.5-0.1,0.5-1.9,1-1.8c0.4,0.1,0.4-0.1,0.2-0.9c-0.1-0.6-0.5-1-0.8-1.1c-1.1-0.2-2-1-2.2-2.2c-0.5-3.2,0.7-7.4,2.5-8.5l1-0.6
	l-0.6-0.8c-0.4-0.5-0.9-1.4-1.1-2.1c-0.4-1.2-0.7-1.3-2.4-1.3c-4.9,0-7.4,0.1-9.5,0.7c-1.3,0.3-6.3,0.4-11.5,0.1
	C214.3,0.7,210.8,0.6,206.7,0.7"/>
</svg>
