<?xml version="1.0" encoding="utf-8"?>
<!-- Generator: Adobe Illustrator 28.3.0, SVG Export Plug-In . SVG Version: 6.00 Build 0)  -->
<svg version="1.0" id="Layer_1" xmlns="http://www.w3.org/2000/svg" xmlns:xlink="http://www.w3.org/1999/xlink" x="0px" y="0px"
	 viewBox="0 0 255.9 8.4" style="enable-background:new 0 0 255.9 8.4;" xml:space="preserve">
<path style="fill:#152E54;" d="M19,18.1c0,0.1,0.1,0.2,0.2,0.2s0.2-0.1,0.2-0.2s-0.1-0.2-0.2-0.2C19.1,17.9,19,18,19,18.1"/>
<path style="fill:#152E54;" d="M119.6,21.1c-0.2-0.1-0.5-0.1-0.7,0c-0.2,0,0,0.1,0.4,0.1S119.8,21.2,119.6,21.1"/>
<path style="fill:#152E54;" d="M119.6,21.1c-0.2-0.1-0.5-0.1-0.7,0c-0.2,0,0,0.1,0.4,0.1S119.8,21.2,119.6,21.1z"/>
<path style="fill:#152E54;" d="M133.7,21.2c-0.2,0,0,0.1,0.3,0.1s0.4,0,0.3-0.1C134.1,21.2,133.8,21.2,133.7,21.2"/>
<path style="fill:#152E54;" d="M133.7,21.2c-0.2,0,0,0.1,0.3,0.1s0.4,0,0.3-0.1C134.1,21.2,133.8,21.2,133.7,21.2z"/>
<path style="fill:#152E54;" d="M136,21.5c-0.2-0.1-0.5-0.1-0.7,0c-0.2,0,0,0.1,0.4,0.1S136.2,21.6,136,21.5"/>
<path style="fill:#152E54;" d="M136,21.5c-0.2-0.1-0.5-0.1-0.7,0c-0.2,0,0,0.1,0.4,0.1S136.2,21.6,136,21.5z"/>
<path style="fill:#152E54;" d="M83.6,21.7c-1.3,0-1.9,0-1.5,0.1c0.8,0.2,3.5,0.2,3.6,0.1C85.7,21.8,84.8,21.7,83.6,21.7"/>
<path style="fill:#152E54;" d="M83.6,21.7c-1.3,0-1.9,0-1.5,0.1c0.8,0.2,3.5,0.2,3.6,0.1C85.7,21.8,84.8,21.7,83.6,21.7z"/>
<path style="fill:#152E54;" d="M120.9,21c-0.2,0,0,0.1,0.3,0.1s0.4,0,0.3-0.1C121.3,20.9,121.1,20.9,120.9,21"/>
<path style="fill:#152E54;" d="M120.9,21c-0.2,0,0,0.1,0.3,0.1s0.4,0,0.3-0.1C121.3,20.9,121.1,20.9,120.9,21z"/>
<path style="fill:#152E54;" d="M124.6,21c-0.1-0.1-0.3-0.1-0.5,0c-0.2,0-0.1,0.1,0.2,0.1C124.6,21.1,124.7,21,124.6,21"/>
<path style="fill:#152E54;" d="M124.6,21c-0.1-0.1-0.3-0.1-0.5,0c-0.2,0-0.1,0.1,0.2,0.1C124.6,21.1,124.7,21,124.6,21z"/>
<path style="fill:#152E54;" d="M40.7,2.3c1.5,0,5.1,0,8.1-0.1c3-0.1,6.3-0.1,7.2-0.1c1,0,3.9,0,6.5,0c4.8-0.1,6.3,0,8.8,0.1
	c0.8,0,3.1,0.1,5.1,0.1c2,0,3.8,0.1,4,0.1c0.1,0.1,2.2,0.1,4.5,0.1c2.3,0,5.1,0.1,6.3,0.1C92.3,2.9,94.8,3,96.7,3
	c1.9,0.1,4.7,0.1,6.3,0.1c1.6,0.1,5.9,0.1,9.6,0.1s7.4,0,8.1,0c0.8,0,5.8-0.1,11.3-0.2c13.9-0.3,19.9-0.2,26.3,0.2
	c1.3,0.1,5,0.3,8.2,0.4c3.1,0.1,5.9,0.3,6.2,0.4c0.2,0,1.2,0.1,2.2,0.1s4,0.1,6.5,0.1c2.6,0.1,5.6,0.1,6.7,0.1
	c1.1,0,3.7,0.1,5.5,0.1c1.9,0,4.7,0,6.2-0.1s2.8-0.1,2.9,0c0.1,0.1,0.3,0.2,0.7,0.3c0.3,0.1,0.4,0.1,0.4-0.2c0-0.2,0.1-0.3,0.6-0.2
	c0.3,0.1,3,0.1,6,0c3-0.1,6.4-0.1,7.5,0c1.1,0.1,3.7,0,5.6-0.1c1.9-0.1,5.1-0.2,7.2-0.3c2-0.1,3.6-0.2,3.6-0.3
	c0-0.1,2.1-0.2,4.9-0.2c4.3-0.1,4.9-0.1,4.6-0.4c-0.2-0.1-0.7-0.3-1.1-0.4c-0.4-0.1-0.7-0.1-0.4-0.1s1.1,0.1,2.1,0.4
	c1.5,0.4,2.1,0.4,4.5,0.3c5.5-0.2,18.8,0,19,0.3c0.8,0.8,1,1,1.8,1.3c1,0.4,1.1,0.5,0.6,1.4c-0.4,0.7-0.8,0.9-2.5,1.2
	c-0.8,0.1-1.6,0.3-1.8,0.4c-0.2,0.1-1.8,0.3-4.1,0.4c-2.9,0.1-3.8,0.1-3.8,0.4c-0.1,0.2,0.1,0.2,0.9,0.1c0.7-0.1,0.9-0.1,0.7,0.1
	c-0.2,0.1-0.7,0.2-1,0.2s-0.8,0.1-0.9,0.2c-0.1,0.1-1.5,0.2-3.6,0.3c-2.8,0.1-3.4,0.1-3.2,0.4c0.1,0.3-0.3,0.4-0.7,0.1
	c-0.1-0.1-1.5-0.1-3-0.2c-2.1,0-2.7,0-2.5,0.1s0.1,0.1-0.9,0.1c-1.3-0.1-5.7,0.3-5.7,0.4c0,0.1,1.1,0.1,2.5,0.2
	c2.6,0.1,3.6,0.1,8.7-0.1c3.1-0.1,3.1-0.1,3.1,0.3v0.4l7.2,0.1c8.1,0.1,11,0.3,12.1,0.9c0.4,0.2,0.6,0.4,0.3,0.3
	c-1.7-0.4-4.3-0.6-7.5-0.7c-0.9,0-2.8-0.1-4.1-0.1c-3.7-0.1-15.4,0.4-17.3,0.7c-1.7,0.3-3,0.4-5.8,0.5l-1.7,0.1l0.1,0.7
	c0.1,0.6,0.2,0.7,0.8,0.7c0.3,0,1.5-0.1,2.6-0.3c1.3-0.2,2-0.3,2.1-0.1c0.1,0.1,1.2,0.1,2.9,0.1c1.8-0.1,2.7-0.1,2.7,0.1
	c0,0.1-0.1,0.2-0.3,0.2s-2.9,0.1-6,0.2l-5.7,0.2l-0.4,0.9c-0.4,0.8-0.7,0.9-1.7,1.2c-1.1,0.3-4.8,0.6-10.6,1
	c-3.8,0.2-5.9,0.4-5.9,0.7c0,0.1,0.6,0.2,1.9,0.3c2.3,0.1,8.1-0.1,7.8-0.4c-0.1-0.1,0.9-0.4,1.1-0.2c0.3,0.2,3.9,0.4,6.7,0.3
	c1.6-0.1,4.4-0.1,6.3,0s6.8,0.1,10.7,0c3.9,0,7.5-0.1,7.8,0c1,0.1,0.9,0.2-0.1,0.4c-1.3,0.2-12,0.5-13.8,0.4
	c-0.8-0.1-2.5-0.1-3.6-0.1c-1.2,0.1-2.6,0.1-3,0c-1.7-0.1-14.4,0.1-14.7,0.4c-0.3,0.2-4.6,0.4-5.9,0.3c-0.8-0.1-0.8-0.1-0.8,0.4
	c0,0.2,0.1,0.4,0.2,0.4c1.1,0.1,3.2,0.1,8.8-0.1c6.5-0.1,7.8-0.1,7.2,0.3c-0.3,0.1-4,0.6-6.4,0.8c-2.5,0.1-16.1,0.6-16,0.5
	c0-0.1-2-0.1-4.5,0.1c-6.8,0.2-12.5,0.2-13.3-0.1c-0.7-0.2-5.9-0.5-11.1-0.6c-1,0-3.4-0.1-5.4-0.1c-1.9-0.1-3.7-0.1-3.9-0.1
	c-0.2,0-1.6-0.1-3-0.1c-4.5-0.3-8.2-0.5-9.8-0.7c-0.9-0.1-2.7-0.1-3.9-0.1c-1.2,0-3.6-0.1-5.4-0.2c-4.7-0.2-9.6-0.2-23.4,0.1
	c-1.2,0-6,0.7-6.8,0.9c-0.6,0.1-1.9,0.3-3.2,0.4c-1.2,0.1-2.3,0.1-2.5,0.1c-0.1,0.1-1,0.1-1.9,0.2s-1.8,0.2-1.8,0.3
	c-0.2,0.2-1.2,0.6-1.8,0.7c-0.2,0-0.4,0.1-0.4,0.2c-0.1,0.1-0.8,0.2-3.2,0.1c-2.9-0.1-11.6-0.1-12.8,0c-2.7,0.2-6.9,0.7-6.5,0.8
	c0.3,0.1,2.2,0.1,4.3,0.1c2,0,3.7,0,3.8,0.1c0.2,0.1-8.7,0.2-10.4,0.1c-0.8-0.1-2.6-0.1-3.9-0.1c-2.7,0-6.5-0.2-9-0.4
	c-0.9-0.1-2.2-0.1-3-0.1s-2,0-2.8-0.1c-0.8-0.1-2.1-0.2-2.9-0.3c-0.8-0.1-2.5-0.1-3.7-0.2c-1.2-0.1-2.9-0.1-3.7-0.2
	c-0.8-0.1-2.5-0.1-3.8-0.2c-1.2-0.1-2.9-0.1-3.6-0.2c-0.7-0.1-1.9-0.1-2.7-0.1s-3.4-0.1-5.7-0.1c-2.3-0.1-4.8-0.2-5.6-0.3
	c-0.8-0.1-2.7-0.1-4.4-0.1c-4,0-6.2-0.1-6.2-0.3c0-0.3-1.2-0.6-2.8-0.7c-0.9-0.1-2-0.1-2.6-0.1c-1-0.1-1.6-0.2-0.7-0.2
	c0.2,0,0.4-0.1,0.4-0.2c0-0.1-0.4-0.1-0.9-0.1c-0.7,0-0.9-0.1-0.9-0.2c0-0.1-0.2-0.3-0.6-0.4c-0.2-0.1-0.6-0.2-0.7-0.3
	s-1.2-0.2-2.6-0.3s-2.6-0.1-2.7-0.2c-0.1-0.1-1.2-0.2-2.5-0.3c-3.4-0.2-4.6-0.4-5.1-0.8c-0.4-0.3-1-0.4-2.8-0.5
	c-1.8-0.1-2.2-0.1-2.2-0.4c0-0.1,0-0.4-0.1-0.7c-0.1-0.4-0.3-0.4-1.2-0.4c-1.5,0.1-2.7-0.1-3.2-0.6c-0.3-0.2-0.8-0.4-1.1-0.4
	c-0.8,0-2-0.3-2-0.5c0-0.3-1.5-0.7-2-0.5c-0.6,0.1-1.1-0.3-1.1-0.8c0-0.4,0.8-0.6,1.2-0.4c0.3,0.2,3.7,0.3,3.8,0.1
	c0-0.1-0.3-0.4-0.8-0.9c-1-0.8-1-1.2-0.1-0.8c0.7,0.3,1.5,0.4,6.6,0.4c3.1,0,3.5-0.1,3.2-0.3c-0.1-0.1-0.6-0.3-0.9-0.4
	c-0.3-0.1-0.6-0.1-0.4-0.1c0-0.1,0.4,0,0.9,0.1c1,0.2,1.3,0,1.5-0.7C0.1,9-0.5,8.7-2.7,8.6c-1.1-0.1-2.1-0.2-2.3-0.3
	c-0.4-0.1-0.6-0.5-0.1-0.5c0.6,0-0.6-0.5-1.1-0.5c-0.4,0-0.4,0-0.2-0.3C-6.4,6.8-6,6.6-5.6,6.6c1.2-0.1,2.2-0.3,2.5-0.6
	C-2.6,5.2-4,4-6,3.7l-1.1-0.1l0.7-0.2C-6,3.2-5.5,3-5.2,2.8c0.4-0.3,0.8-0.4,2.7-0.4C3,2.4,5.8,2.5,8.1,2.6c1.5,0.1,7,0.1,12.9,0
	C32.2,2.3,36.1,2.3,40.7,2.3 M246.2,11.6c2-0.2,4.1-0.4,4.7-0.4c0.6,0,1-0.1,1-0.2c0-0.2-10.5,0.5-13.9,1
	C235.9,12.4,242.2,12.1,246.2,11.6 M236.6,10.5c0.4,0.2,1.1,0.2,1.1,0c0-0.1-0.3-0.1-0.7-0.1C236.5,10.3,236.4,10.3,236.6,10.5
	 M199.2,11.9c-0.3,0-0.8,0-1.1,0.1c-0.2,0.1,0,0.1,0.7,0.1C199.4,12,199.6,11.9,199.2,11.9 M215.7,20.6c0.6,0,0.6-0.1,0.2-0.3
	c-0.3-0.3-0.8-0.2-0.8,0.1C215,20.6,215.4,20.6,215.7,20.6 M203,20.6c9.3,0,11.3-0.1,11.9-0.6c0.3-0.3-19.1-0.1-19.7,0.2
	C194.9,20.4,199.4,20.6,203,20.6 M180,12.1c0.2,0.1,1.2,0.1,6.6,0.1c2,0,5.3-0.1,7-0.1c1.9,0,3-0.1,2.8-0.1
	c-0.3-0.1-3.2-0.1-6.5-0.1s-6.8-0.1-7.9-0.1C180.2,11.6,179.5,11.8,180,12.1 M176.1,12.1c0.2,0,1,0,1.8,0.1c0.9,0.1,1.3,0,1.5-0.1
	c0.1-0.1-0.1-0.2-0.4-0.2s-1.2,0-1.9,0s-1.2,0.1-1.2,0.1C175.6,12,175.9,12.1,176.1,12.1 M173.1,12c1,0.1,2.1,0.1,2.1-0.1
	c0-0.1-0.6-0.1-1.3-0.1C172.7,11.9,172.6,11.9,173.1,12 M156.7,10.7c0,0.2,1.7,0.3,2.1,0.1c0.2-0.1,0.1-0.1-0.6-0.1
	c-0.6,0-1.1,0-1.2-0.1S156.7,10.5,156.7,10.7 M155.8,10.7c0.4,0,0.7-0.1,0.3-0.1c-0.2,0-0.7,0-0.9,0C155,10.7,155.3,10.7,155.8,10.7
	 M139.8,10.5c0.7,0,3.5,0,6.4,0.1c2.9,0.1,5.8,0.1,6.6,0.2c0.8,0,1.5,0,1.5-0.1c0.1-0.1-2.6-0.4-5-0.5c-7.8-0.2-10.5-0.1-10.5,0.2
	C138.6,10.5,139.2,10.5,139.8,10.5 M131.8,10.5c2.1,0,4.4,0,4.9,0.1c1.2,0.1,1.8-0.2,0.8-0.4c-1.2-0.1-9.8,0-9.7,0.1
	C128,10.5,129.8,10.5,131.8,10.5 M109.3,10.6c0.3,0,0.4-0.1,0.2-0.1c-0.2-0.1-0.6,0-0.7,0C108.7,10.5,108.9,10.6,109.3,10.6
	 M71.3,11L71.3,11c0.1,0.1,1.9,0.1,3.9,0.1c4.1-0.1,3.8-0.2-0.9-0.4C71.5,10.5,70.8,10.6,71.3,11"/>
<path style="fill:#152E54;" d="M30,8.6c0,0.1,0.1,0.2,0.3,0.2c0.2,0,0.3-0.1,0.2-0.2c-0.1-0.1-0.2-0.2-0.3-0.2
	C30.1,8.4,30,8.4,30,8.6"/>
<path style="fill:#152E54;" d="M30.8,6.7c-0.1-0.1-0.3-0.1-0.5,0c-0.2,0-0.1,0.1,0.2,0.1C30.8,6.8,30.9,6.7,30.8,6.7"/>
<path style="fill:#152E54;" d="M19.8,2c0.3,0.2,0.4,0.2,0.5-0.1c0.1-0.2,0.5-0.3,1-0.4l0.9-0.1l-0.8-0.1C20.4,1.2,19.3,1.7,19.8,2"
	/>
<path style="fill:#152E54;" d="M20,9.4c0.2,0,0.4-0.1,0.6-0.2c0.5-0.3,3.2-0.6,5.9-0.6c1.4,0,2.5-0.1,2.4-0.1
	c-0.2-0.2-5.4-0.1-6.8,0.1c-0.7,0.1-1.5,0.4-1.9,0.5C20,9.3,19.8,9.4,20,9.4"/>
<path style="fill:#152E54;" d="M20,9.4c0.2,0,0.4-0.1,0.6-0.2c0.5-0.3,3.2-0.6,5.9-0.6c1.4,0,2.5-0.1,2.4-0.1
	c-0.2-0.2-5.4-0.1-6.8,0.1c-0.7,0.1-1.5,0.4-1.9,0.5C20,9.3,19.8,9.4,20,9.4z"/>
<path style="fill:#152E54;" d="M41,11.9c0.6,0,0.5-0.1-0.6-0.2c-1.9-0.3-4.3-0.4-4.2-0.2c0.1,0.1,0.6,0.2,1.3,0.3l0,0
	C38.6,11.8,39.6,11.9,41,11.9"/>
<path style="fill:#152E54;" d="M48.9,19.6c-0.1-0.1-0.2-0.1-0.3,0c-0.1,0.1-0.1,0.1,0.1,0.1S48.9,19.7,48.9,19.6"/>
<path style="fill:#152E54;" d="M47.9,19.6c-0.8-0.2-2.6-0.3-2.5-0.2c0,0.1,0.6,0.2,1.1,0.3C47.5,19.8,48.7,19.7,47.9,19.6"/>
</svg>
