<?xml version="1.0" encoding="utf-8"?>
<!-- Generator: Adobe Illustrator 28.3.0, SVG Export Plug-In . SVG Version: 6.00 Build 0)  -->
<svg version="1.0" id="Layer_1" xmlns="http://www.w3.org/2000/svg" xmlns:xlink="http://www.w3.org/1999/xlink" x="0px" y="0px"
	 viewBox="0 0 255.9 31.7" style="enable-background:new 0 0 255.9 31.7;" xml:space="preserve">
<path style="fill:#EBBD60;" d="M53.5,0.5c0.3,0,0.4,0,0.3-0.1c-0.2-0.1-0.4-0.1-0.6,0C53.1,0.4,53.2,0.5,53.5,0.5"/>
<path style="fill:none;stroke:#EBBD60;stroke-width:0.546;stroke-miterlimit:10;" d="M53.5,0.5c0.3,0,0.4,0,0.3-0.1
	c-0.2-0.1-0.4-0.1-0.6,0C53.1,0.4,53.2,0.5,53.5,0.5z"/>
<path style="fill:#EBBD60;" d="M52.5,0.6c-0.1-0.1-0.2-0.1-0.3,0c-0.1,0.1-0.1,0.1,0.1,0.1C52.5,0.7,52.5,0.6,52.5,0.6"/>
<path style="fill:none;stroke:#EBBD60;stroke-width:0.546;stroke-miterlimit:10;" d="M52.5,0.6c-0.1-0.1-0.2-0.1-0.3,0
	c-0.1,0.1-0.1,0.1,0.1,0.1C52.5,0.7,52.5,0.6,52.5,0.6z"/>
<path style="fill:#EBBD60;" d="M19,19.4c0,0.1,0.1,0.2,0.2,0.2c0.1,0,0.2-0.1,0.2-0.2c0-0.1-0.1-0.2-0.2-0.2
	C19.1,19.2,19,19.3,19,19.4"/>
<path style="fill:none;stroke:#EBBD60;stroke-width:0.546;stroke-miterlimit:10;" d="M19,19.4c0,0.1,0.1,0.2,0.2,0.2
	c0.1,0,0.2-0.1,0.2-0.2c0-0.1-0.1-0.2-0.2-0.2C19.1,19.2,19,19.3,19,19.4z"/>
<path style="fill:#EBBD60;" d="M119.6,22.4c-0.2-0.1-0.5-0.1-0.7,0c-0.2,0,0,0.1,0.4,0.1S119.8,22.5,119.6,22.4"/>
<path style="fill:none;stroke:#EBBD60;stroke-width:0.546;stroke-miterlimit:10;" d="M119.6,22.4c-0.2-0.1-0.5-0.1-0.7,0
	c-0.2,0,0,0.1,0.4,0.1S119.8,22.5,119.6,22.4z"/>
<path style="fill:#EBBD60;" d="M133.7,22.5c-0.2,0,0,0.1,0.3,0.1c0.3,0,0.4,0,0.3-0.1C134.1,22.5,133.8,22.5,133.7,22.5"/>
<path style="fill:none;stroke:#EBBD60;stroke-width:0.546;stroke-miterlimit:10;" d="M133.7,22.5c-0.2,0,0,0.1,0.3,0.1
	c0.3,0,0.4,0,0.3-0.1C134.1,22.5,133.8,22.5,133.7,22.5z"/>
<path style="fill:#EBBD60;" d="M136,22.8c-0.2-0.1-0.5-0.1-0.7,0c-0.2,0,0,0.1,0.4,0.1S136.2,22.9,136,22.8"/>
<path style="fill:none;stroke:#EBBD60;stroke-width:0.546;stroke-miterlimit:10;" d="M136,22.8c-0.2-0.1-0.5-0.1-0.7,0
	c-0.2,0,0,0.1,0.4,0.1S136.2,22.9,136,22.8z"/>
<path style="fill:#EBBD60;" d="M83.6,23c-1.3,0-1.9,0-1.5,0.1c0.8,0.2,3.5,0.2,3.6,0.1C85.7,23.1,84.8,23,83.6,23"/>
<path style="fill:none;stroke:#EBBD60;stroke-width:0.546;stroke-miterlimit:10;" d="M83.6,23c-1.3,0-1.9,0-1.5,0.1
	c0.8,0.2,3.5,0.2,3.6,0.1C85.7,23.1,84.8,23,83.6,23z"/>
<path style="fill:#EBBD60;" d="M120.9,22.3c-0.2,0,0,0.1,0.3,0.1c0.3,0,0.4,0,0.3-0.1C121.3,22.2,121.1,22.2,120.9,22.3"/>
<path style="fill:none;stroke:#EBBD60;stroke-width:0.546;stroke-miterlimit:10;" d="M120.9,22.3c-0.2,0,0,0.1,0.3,0.1
	c0.3,0,0.4,0,0.3-0.1C121.3,22.2,121.1,22.2,120.9,22.3z"/>
<path style="fill:#EBBD60;" d="M124.6,22.3c-0.1-0.1-0.3-0.1-0.5,0c-0.2,0-0.1,0.1,0.2,0.1C124.6,22.4,124.7,22.3,124.6,22.3"/>
<path style="fill:none;stroke:#EBBD60;stroke-width:0.546;stroke-miterlimit:10;" d="M124.6,22.3c-0.1-0.1-0.3-0.1-0.5,0
	c-0.2,0-0.1,0.1,0.2,0.1C124.6,22.4,124.7,22.3,124.6,22.3z"/>
<path style="fill:#EBBD60;" d="M206.7,1c-1.3,0-4.6,0-7.2-0.1c-2.7-0.1-5.6-0.1-6.4-0.1c-0.9,0-3.5,0-5.8,0c-4.3-0.1-5.6,0-7.9,0.1
	c-0.7,0-2.8,0.1-4.6,0.2c-1.8,0-3.4,0.1-3.6,0.2c-0.1,0.1-2,0.1-4,0.2c-2.1,0-4.6,0.1-5.6,0.2c-1,0.1-3.3,0.2-5,0.2
	c-1.7,0.1-4.2,0.2-5.6,0.2c-1.4,0.1-5.3,0.1-8.6,0.1c-3.3,0-6.6,0-7.2,0c-0.7,0-5.2-0.1-10.1-0.3c-12.4-0.4-17.8-0.3-23.5,0.3
	c-1.2,0.1-4.5,0.4-7.3,0.6s-5.3,0.4-5.5,0.5c-0.2,0-1.1,0.1-2,0.1c-0.9,0-3.6,0.1-5.8,0.2c-2.3,0.1-5,0.2-6,0.2
	c-1,0-3.3,0.1-4.9,0.1c-1.7,0-4.2,0-5.5-0.1c-1.3-0.1-2.5-0.1-2.6,0c-0.1,0.1-0.3,0.3-0.6,0.4c-0.3,0.1-0.4,0.1-0.4-0.3
	c0-0.3-0.1-0.4-0.5-0.3c-0.3,0.1-2.7,0.1-5.4,0c-2.7-0.1-5.7-0.1-6.7,0c-1,0.1-3.3,0-5-0.1c-1.7-0.1-4.6-0.3-6.4-0.4
	c-1.8-0.1-3.2-0.3-3.2-0.4c0-0.1-1.9-0.3-4.4-0.3c-3.8-0.1-4.4-0.2-4.1-0.5c0.2-0.2,0.6-0.4,1-0.5c0.4-0.1,0.6-0.2,0.4-0.2
	c-0.2,0-1,0.2-1.9,0.5c-1.3,0.5-1.9,0.5-4,0.4C15.9,1.8,4,2.1,3.8,2.5C3.1,3.6,2.9,3.9,2.2,4.3C1.3,4.8,1.2,5,1.7,6.2
	c0.4,1,0.7,1.2,2.2,1.7C4.6,8,5.3,8.3,5.5,8.5c0.2,0.2,1.6,0.4,3.7,0.5c2.6,0.1,3.4,0.2,3.4,0.5c0.1,0.3-0.1,0.3-0.8,0.1
	c-0.6-0.1-0.8-0.1-0.6,0.1c0.2,0.1,0.6,0.3,0.9,0.3c0.3,0,0.7,0.2,0.8,0.3c0.1,0.2,1.3,0.3,3.2,0.4c2.5,0.1,3,0.2,2.9,0.5
	c-0.1,0.4,0.3,0.5,0.6,0.1c0.1-0.1,1.3-0.2,2.7-0.3c1.9,0,2.4,0,2.2,0.2c-0.2,0.2-0.1,0.2,0.8,0.2c1.2-0.1,5.1,0.4,5.1,0.6
	c0,0.1-1,0.2-2.2,0.3c-2.3,0.1-3.2,0.1-7.8-0.1c-2.8-0.1-2.8-0.1-2.8,0.4l0,0.6l-6.4,0.1C4,13.5,1.4,13.7,0.4,14.5
	c-0.4,0.3-0.5,0.5-0.3,0.4c1.5-0.5,3.8-0.8,6.7-0.9c0.8,0,2.5-0.1,3.7-0.1c3.3-0.1,13.8,0.5,15.5,1c1.5,0.4,2.7,0.5,5.2,0.7l1.5,0.1
	l-0.1,0.9c-0.1,0.8-0.2,0.9-0.7,1c-0.3,0-1.3-0.1-2.3-0.4c-1.2-0.3-1.8-0.4-1.9-0.2c-0.1,0.1-1.1,0.2-2.6,0.1
	c-1.6-0.1-2.4-0.1-2.4,0.1c0,0.1,0.1,0.3,0.3,0.3c0.2,0,2.6,0.2,5.4,0.3l5.1,0.3l0.4,1.2c0.4,1.1,0.6,1.2,1.5,1.6
	c1,0.4,4.3,0.8,9.5,1.3c3.4,0.3,5.3,0.6,5.3,1c0,0.2-0.5,0.3-1.7,0.4c-2.1,0.1-7.2-0.2-7-0.5c0.1-0.2-0.8-0.5-1-0.3
	c-0.3,0.3-3.5,0.5-6,0.4c-1.4-0.1-3.9-0.1-5.6,0c-1.7,0.1-6.1,0.1-9.6,0c-3.5,0-6.7-0.1-7,0c-0.9,0.1-0.8,0.3,0.1,0.6
	c1.2,0.3,10.7,0.7,12.3,0.5c0.7-0.1,2.2-0.1,3.2-0.1c1.1,0.1,2.3,0.1,2.7,0c1.5-0.2,12.9,0.2,13.1,0.5c0.3,0.3,4.1,0.6,5.3,0.4
	c0.7-0.1,0.7-0.1,0.7,0.5c0,0.3-0.1,0.6-0.2,0.6c-1,0.1-2.9,0.1-7.9-0.1c-5.8-0.2-7-0.1-6.4,0.4c0.3,0.2,3.6,0.8,5.7,1.1
	c2.2,0.2,14.4,0.8,14.3,0.7c0-0.1,1.8-0.1,4,0.1c6.1,0.3,11.2,0.3,11.9-0.1c0.6-0.3,5.3-0.7,9.9-0.8c0.9,0,3-0.1,4.8-0.2
	c1.7-0.1,3.3-0.1,3.5-0.1c0.2,0,1.4-0.1,2.7-0.2c4-0.4,7.3-0.7,8.8-0.9c0.8-0.1,2.4-0.2,3.5-0.2c1.1,0,3.2-0.1,4.8-0.3
	c4.2-0.3,8.6-0.3,20.9,0.1c1.1,0,5.4,0.9,6.1,1.2c0.5,0.2,1.7,0.4,2.9,0.5c1.1,0.1,2.1,0.2,2.2,0.2c0.1,0.1,0.9,0.2,1.7,0.3
	c0.8,0.1,1.6,0.3,1.6,0.4c0.2,0.3,1.1,0.8,1.6,0.9c0.2,0,0.4,0.1,0.4,0.3c0.1,0.2,0.7,0.3,2.9,0.1c2.6-0.1,10.4-0.2,11.4,0
	c2.4,0.3,6.2,1,5.8,1.1c-0.3,0.1-2,0.1-3.8,0.1c-1.8,0-3.3,0-3.4,0.1c-0.2,0.2,7.8,0.3,9.3,0.1c0.7-0.1,2.3-0.2,3.5-0.2
	c2.4,0,5.8-0.3,8-0.5c0.8-0.1,2-0.1,2.7-0.1c0.7,0,1.8,0,2.5-0.1s1.9-0.3,2.6-0.4c0.7-0.1,2.2-0.2,3.3-0.3c1.1-0.1,2.6-0.2,3.3-0.3
	c0.7-0.1,2.2-0.2,3.4-0.3c1.1-0.1,2.6-0.2,3.2-0.3c0.6-0.1,1.7-0.2,2.4-0.2c0.7,0,3-0.1,5.1-0.2c2.1-0.1,4.3-0.3,5-0.4
	c0.7-0.1,2.4-0.2,3.9-0.2c3.6,0,5.5-0.1,5.5-0.4c0-0.4,1.1-0.8,2.5-0.9c0.8-0.1,1.8-0.1,2.3-0.2c0.9-0.1,1.4-0.3,0.6-0.3
	c-0.2,0-0.4-0.1-0.4-0.3c0-0.1,0.4-0.2,0.8-0.2c0.6,0,0.8-0.1,0.8-0.3c0-0.2,0.2-0.4,0.5-0.5c0.2-0.1,0.5-0.3,0.6-0.4
	c0.1-0.1,1.1-0.3,2.3-0.4c1.2-0.1,2.3-0.2,2.4-0.3c0.1-0.1,1.1-0.3,2.2-0.4c3-0.3,4.1-0.5,4.6-1.1c0.4-0.4,0.9-0.5,2.5-0.7
	c1.6-0.1,2-0.2,2-0.5c0-0.2,0-0.6,0.1-0.9c0.1-0.5,0.3-0.6,1.1-0.5c1.3,0.1,2.4-0.2,2.9-0.8c0.3-0.3,0.7-0.5,1-0.5
	c0.7,0,1.8-0.4,1.8-0.7c0-0.4,1.3-0.9,1.8-0.7c0.5,0.2,1-0.4,1-1.1c0-0.5-0.7-0.8-1.1-0.5c-0.3,0.3-3.3,0.4-3.4,0.1
	c0-0.1,0.3-0.6,0.7-1.2c0.9-1.1,0.9-1.7,0.1-1.1c-0.6,0.4-1.3,0.5-5.9,0.5c-2.8,0-3.1-0.1-2.9-0.4c0.1-0.2,0.5-0.4,0.8-0.5
	c0.3-0.1,0.5-0.2,0.4-0.2c0-0.1-0.4,0-0.8,0.1c-0.9,0.3-1.2,0-1.3-1c-0.1-1.1,0.4-1.5,2.4-1.7c1-0.1,1.9-0.3,2.1-0.4
	c0.4-0.2,0.5-0.7,0.1-0.7c-0.5,0,0.5-0.7,1-0.7c0.4,0,0.4,0,0.2-0.4c-0.1-0.2-0.5-0.4-0.8-0.4c-1.1-0.1-2-0.4-2.2-0.8
	c-0.5-1.2,0.7-2.8,2.5-3.2l1-0.2l-0.6-0.3c-0.4-0.2-0.8-0.5-1.1-0.8c-0.4-0.4-0.7-0.5-2.4-0.5c-4.9,0-7.4,0.1-9.5,0.3
	c-1.3,0.1-6.3,0.1-11.5,0C214.3,1,210.8,1,206.7,1 M23,13.7c-1.8-0.3-3.7-0.5-4.2-0.6c-0.5,0-0.9-0.2-0.9-0.3
	c0-0.3,9.4,0.7,12.4,1.4C32.2,14.7,26.6,14.3,23,13.7 M31.6,12.1c-0.4,0.3-1,0.3-1,0c0-0.1,0.3-0.2,0.6-0.2
	C31.7,11.9,31.8,11.9,31.6,12.1 M65,14.1c0.3,0,0.7,0,1,0.1c0.2,0.1,0,0.1-0.6,0.1C64.9,14.2,64.7,14.1,65,14.1 M50.3,26
	c-0.5,0-0.5-0.1-0.2-0.4c0.3-0.4,0.7-0.3,0.7,0.2C50.9,25.9,50.6,26,50.3,26 M61.6,25.9c-8.3,0-10.1-0.2-10.6-0.8
	c-0.3-0.4,17.1-0.1,17.6,0.3C68.9,25.6,64.9,25.9,61.6,25.9 M82.2,14.3c-0.2,0.2-1.1,0.2-5.9,0.1c-1.8,0-4.7-0.1-6.3-0.1
	c-1.7,0-2.7-0.1-2.5-0.2c0.3-0.1,2.9-0.2,5.8-0.2c2.9,0,6.1-0.1,7.1-0.1C82,13.7,82.6,13.9,82.2,14.3 M85.7,14.3
	c-0.2,0-0.9,0-1.6,0.1c-0.8,0.1-1.2,0-1.3-0.2c-0.1-0.2,0.1-0.3,0.4-0.3c0.3,0,1.1,0,1.7,0c0.6,0,1.1,0.1,1.1,0.2
	C86.1,14.2,85.9,14.3,85.7,14.3 M88.4,14.2c-0.9,0.2-1.9,0.2-1.9-0.1c0-0.1,0.5-0.2,1.2-0.2C88.7,14,88.8,14,88.4,14.2 M103,12.4
	c0,0.3-1.5,0.4-1.9,0.2c-0.2-0.1-0.1-0.2,0.5-0.2c0.5,0,1,0,1.1-0.1C102.8,12.2,103,12.2,103,12.4 M103.8,12.4
	c-0.4,0-0.6-0.1-0.3-0.1c0.2,0,0.6,0,0.8,0C104.5,12.4,104.3,12.4,103.8,12.4 M118.1,12.1c-0.6,0-3.1,0-5.7,0.1
	c-2.6,0.1-5.2,0.2-5.9,0.3c-0.7,0-1.3,0-1.3-0.2c-0.1-0.2,2.3-0.6,4.5-0.7c7-0.3,9.4-0.2,9.4,0.3C119.2,12.1,118.7,12.2,118.1,12.1
	 M125.3,12.2c-1.9,0-3.9,0-4.4,0.1c-1.1,0.1-1.6-0.3-0.7-0.5c1.1-0.2,8.8,0,8.7,0.2C128.7,12.1,127.1,12.2,125.3,12.2 M145.4,12.3
	c-0.3,0-0.4-0.1-0.2-0.1c0.2-0.1,0.5,0,0.6,0C145.9,12.2,145.7,12.3,145.4,12.3 M179.3,12.8L179.3,12.8c-0.1,0.1-1.7,0.2-3.5,0.2
	c-3.7-0.1-3.4-0.3,0.8-0.6C179.2,12.2,179.8,12.3,179.3,12.8"/>
<path style="fill:#EBBD60;" d="M30,9.9c0,0.1,0.1,0.2,0.3,0.2c0.2,0,0.3-0.1,0.2-0.2c-0.1-0.1-0.2-0.2-0.3-0.2
	C30.1,9.7,30,9.7,30,9.9"/>
<path style="fill:none;stroke:#EBBD60;stroke-width:0.546;stroke-miterlimit:10;" d="M30,9.9c0,0.1,0.1,0.2,0.3,0.2
	c0.2,0,0.3-0.1,0.2-0.2c-0.1-0.1-0.2-0.2-0.3-0.2C30.1,9.7,30,9.7,30,9.9z"/>
<path style="fill:#EBBD60;" d="M30.8,8c-0.1-0.1-0.3-0.1-0.5,0c-0.2,0-0.1,0.1,0.2,0.1C30.8,8.1,30.9,8,30.8,8"/>
<path style="fill:none;stroke:#EBBD60;stroke-width:0.546;stroke-miterlimit:10;" d="M30.8,8c-0.1-0.1-0.3-0.1-0.5,0
	c-0.2,0-0.1,0.1,0.2,0.1C30.8,8.1,30.9,8,30.8,8z"/>
<path style="fill:#EBBD60;" d="M19.8,3.3c0.3,0.2,0.4,0.2,0.5-0.1c0.1-0.2,0.5-0.3,1-0.4l0.9-0.1l-0.8-0.1C20.4,2.5,19.3,3,19.8,3.3
	"/>
<path style="fill:none;stroke:#EBBD60;stroke-width:0.546;stroke-miterlimit:10;" d="M19.8,3.3c0.3,0.2,0.4,0.2,0.5-0.1
	c0.1-0.2,0.5-0.3,1-0.4l0.9-0.1l-0.8-0.1C20.4,2.5,19.3,3,19.8,3.3z"/>
<path style="fill:#EBBD60;" d="M20,10.7c0.2,0,0.4-0.1,0.6-0.2c0.5-0.3,3.2-0.6,5.9-0.6c1.4,0,2.5-0.1,2.4-0.1
	c-0.2-0.2-5.4-0.1-6.8,0.1c-0.7,0.1-1.5,0.4-1.9,0.5C20,10.6,19.8,10.7,20,10.7"/>
<path style="fill:none;stroke:#EBBD60;stroke-width:0.546;stroke-miterlimit:10;" d="M20,10.7c0.2,0,0.4-0.1,0.6-0.2
	c0.5-0.3,3.2-0.6,5.9-0.6c1.4,0,2.5-0.1,2.4-0.1c-0.2-0.2-5.4-0.1-6.8,0.1c-0.7,0.1-1.5,0.4-1.9,0.5C20,10.6,19.8,10.7,20,10.7z"/>
<path style="fill:#EBBD60;" d="M41,13.2c0.6,0,0.5-0.1-0.6-0.2c-1.9-0.3-4.3-0.4-4.2-0.2c0.1,0.1,0.6,0.2,1.3,0.3v0
	C38.6,13.1,39.6,13.2,41,13.2"/>
<path style="fill:none;stroke:#EBBD60;stroke-width:0.546;stroke-miterlimit:10;" d="M41,13.2c0.6,0,0.5-0.1-0.6-0.2
	c-1.9-0.3-4.3-0.4-4.2-0.2c0.1,0.1,0.6,0.2,1.3,0.3v0C38.6,13.1,39.6,13.2,41,13.2z"/>
<path style="fill:#EBBD60;" d="M45.4,0.9c-0.9,0.2,2.1,0.2,3.2,0c0.6-0.1,0.5-0.1-0.9-0.1C46.8,0.8,45.8,0.9,45.4,0.9"/>
<path style="fill:none;stroke:#EBBD60;stroke-width:0.546;stroke-miterlimit:10;" d="M45.4,0.9c-0.9,0.2,2.1,0.2,3.2,0
	c0.6-0.1,0.5-0.1-0.9-0.1C46.8,0.8,45.8,0.9,45.4,0.9z"/>
<path style="fill:#EBBD60;" d="M48.9,20.9c-0.1-0.1-0.2-0.1-0.3,0C48.5,21,48.5,21,48.7,21C48.9,21,48.9,21,48.9,20.9"/>
<path style="fill:none;stroke:#EBBD60;stroke-width:0.546;stroke-miterlimit:10;" d="M48.9,20.9c-0.1-0.1-0.2-0.1-0.3,0
	C48.5,21,48.5,21,48.7,21C48.9,21,48.9,21,48.9,20.9z"/>
<path style="fill:#EBBD60;" d="M47.9,20.9c-0.8-0.2-2.6-0.3-2.5-0.2c0,0.1,0.6,0.2,1.1,0.3C47.5,21.1,48.7,21,47.9,20.9"/>
<path style="fill:none;stroke:#EBBD60;stroke-width:0.546;stroke-miterlimit:10;" d="M47.9,20.9c-0.8-0.2-2.6-0.3-2.5-0.2
	c0,0.1,0.6,0.2,1.1,0.3C47.5,21.1,48.7,21,47.9,20.9z"/>
<rect x="15.9" y="-68.8" style="fill:none;" width="214.3" height="100.5"/>
</svg>
